<svg width="40" height="40" viewBox="0 0 40 40" fill="none" xmlns="http://www.w3.org/2000/svg">
<g clip-path="url(#clip0_17079_22546)">
<path d="M32 0H8C3.58172 0 0 3.58172 0 8V32C0 36.4183 3.58172 40 8 40H32C36.4183 40 40 36.4183 40 32V8C40 3.58172 36.4183 0 32 0Z" fill="#0070D7"/>
<path d="M24 15H24.01" stroke="white" stroke-width="2" stroke-linecap="round" stroke-linejoin="round"/>
<path d="M11.4 25.9998H20C22.1217 25.9998 24.1566 25.157 25.6569 23.6567C27.1571 22.1564 28 20.1216 28 17.9998V14.9998C28.0023 14.1478 27.7323 13.3172 27.2296 12.6292C26.7269 11.9413 26.0175 11.4318 25.205 11.1751C24.3925 10.9184 23.5193 10.9279 22.7125 11.2021C21.9058 11.4764 21.2077 12.0011 20.72 12.6998L10 27.9998" stroke="white" stroke-width="2" stroke-linecap="round" stroke-linejoin="round"/>
<path d="M28 15L30 15.5L28 16" stroke="white" stroke-width="2" stroke-linecap="round" stroke-linejoin="round"/>
<path d="M18 26V29" stroke="white" stroke-width="2" stroke-linecap="round" stroke-linejoin="round"/>
<path d="M22 25.75V29" stroke="white" stroke-width="2" stroke-linecap="round" stroke-linejoin="round"/>
<path d="M15 25.9999C16.2331 25.9999 17.4363 25.6199 18.4457 24.9116C19.4552 24.2034 20.2219 23.2013 20.6416 22.0418C21.0612 20.8823 21.1134 19.6217 20.7911 18.4314C20.4687 17.2412 19.7874 16.1792 18.84 15.3899" stroke="white" stroke-width="2" stroke-linecap="round" stroke-linejoin="round"/>
</g>
<defs>
<clipPath id="clip0_17079_22546">
<rect width="40" height="40" fill="white"/>
</clipPath>
</defs>
</svg>
