<?xml version="1.0" encoding="UTF-8"?>
<svg width="24" height="24" viewBox="0 0 24 24" fill="none" xmlns="http://www.w3.org/2000/svg">
  <rect width="24" height="24" rx="6" fill="hsl(210, 100%, 42%)"/>
  <path d="M18.223 7.839c.418.087.573.48.573.48s.155.394-.263.918c-.418.524-1.57 1.135-1.57 1.135s.03.044.062.131c.031.087.062.218.062.218s.077.262-.077.567c-.155.305-.557.654-.557.654s.093.131.093.35c0 .217-.124.508-.124.508s-.216.378-.572.654c-.355.275-.882.48-.882.48s-.185.13-.463.13c-.278 0-.525-.13-.525-.13s-.34-.16-.649-.407c-.309-.247-.525-.508-.525-.508s-.154-.16-.247-.407c-.093-.247-.093-.48-.093-.48s-.03-.48.093-.83c.124-.349.34-.61.34-.61s.031-.102.031-.261c0-.16-.062-.32-.062-.32s-.154-.32-.154-.61c0-.29.154-.552.154-.552s.216-.349.587-.61c.37-.262.835-.378.835-.378s.278-.087.587-.087c.309 0 .556.087.556.087s.247.087.494.261c.247.175.432.407.432.407s.154.218.216.48c.062.262.031.508.031.508s-.03.247-.154.48c-.124.233-.309.407-.309.407s-.216.218-.463.349c-.247.13-.525.174-.525.174s-.278.044-.525-.043c-.247-.088-.432-.262-.432-.262s-.185-.218-.247-.436c-.062-.218-.031-.407-.031-.407s.062-.218.216-.378c.154-.16.37-.247.37-.247s.216-.087.432-.043c.216.043.37.174.37.174s.154.13.216.29c.062.16.031.32.031.32s-.03.145-.154.261c-.123.116-.278.174-.278.174s-.154.058-.309.014c-.154-.043-.247-.174-.247-.174s-.093-.13-.093-.261c0-.13.093-.232.093-.232s.093-.102.216-.131c.123-.029.216.015.216.015s.093.043.123.13c.031.088 0 .16 0 .16s-.03.073-.092.102c-.062.029-.124.014-.124.014s-.03-.014-.062-.058c-.03-.043 0-.087 0-.087s.031-.044.062-.044c.03 0 .03.015.03.015" fill="#fff"/>
</svg>