<svg width="143" height="59" viewBox="0 0 143 59" fill="none" xmlns="http://www.w3.org/2000/svg">
<path d="M4.31761 46.0512C3.62678 46.0895 3.05109 45.7633 2.59054 45.0725C2.12999 44.3817 1.9189 43.806 1.95728 43.3454C1.99566 42.7313 2.16837 41.8486 2.4754 40.6972C2.78244 39.5459 3.12785 38.3753 3.51165 37.1855C3.89544 35.9958 4.24085 35.0555 4.54789 34.3647C4.7014 33.7506 4.83573 33.2133 4.95087 32.7527C5.10439 32.2538 5.20034 31.9276 5.23871 31.7741C5.35385 31.6205 5.52656 31.2176 5.75684 30.5651C6.02549 29.9127 6.23658 29.2794 6.39009 28.6653C6.46685 28.3583 6.62037 27.7826 6.85065 26.9383C7.1193 26.0555 7.42633 25.0385 7.77175 23.8871C8.15554 22.7357 8.52014 21.6035 8.86556 20.4905C9.24935 19.3775 9.57558 18.3989 9.84423 17.5545C10.1129 16.7102 10.2856 16.1537 10.3624 15.885C10.6694 15.4245 10.8997 14.9831 11.0532 14.5609C11.2067 14.1388 11.3026 13.8509 11.341 13.6974C11.5713 13.5439 11.7056 13.352 11.744 13.1217C11.7824 12.8531 11.8016 12.642 11.8016 12.4885C11.8016 12.2966 11.8591 12.143 11.9743 12.0279C12.1278 11.9128 12.2046 11.7784 12.2046 11.6249C12.3581 11.5098 12.454 11.4906 12.4924 11.5674C12.5308 11.6441 12.6459 11.5865 12.8378 11.3946L13.1257 9.4373L18.2493 9.37973C18.1725 9.84028 18.0574 10.416 17.9039 11.1068C17.7504 11.7592 17.3858 12.642 16.8101 13.755C16.6182 14.5226 16.3879 15.2134 16.1192 15.8275C15.889 16.4415 15.793 16.8445 15.8314 17.0364C15.7546 17.1132 15.5819 17.497 15.3133 18.1878C15.083 18.8786 14.7952 19.723 14.4497 20.7208C14.1427 21.7187 13.8165 22.7165 13.4711 23.7144C13.164 24.7123 12.8762 25.595 12.6075 26.3626C12.3773 27.0918 12.2237 27.5523 12.147 27.7442C11.84 28.3583 11.4945 29.2602 11.1107 30.45C10.727 31.6397 10.1513 33.2517 9.38368 35.2858C9.07665 35.8998 8.69285 36.8209 8.2323 38.0491C7.81013 39.2772 7.46471 40.3902 7.19606 41.3881C6.77389 42.8849 6.39009 43.9595 6.04468 44.6119C5.73765 45.2644 5.4498 45.6482 5.18115 45.7633C4.91249 45.9168 4.62465 46.0128 4.31761 46.0512ZM4.83573 12.2006C3.26218 12.3541 2.18756 12.1622 1.61187 11.6249C1.07456 11.0876 0.882663 10.5119 1.03618 9.89785C1.15132 9.4373 1.41997 9.05351 1.84215 8.74647C2.3027 8.40106 3.12785 8.11321 4.31761 7.88294C4.73978 7.80618 5.27709 7.71023 5.92954 7.59509C6.62037 7.47995 7.27282 7.36482 7.88689 7.24968C9.1534 7.09616 10.1896 6.96183 10.9956 6.8467C11.84 6.73156 12.7035 6.63561 13.5862 6.55885C14.4689 6.48209 15.5819 6.40533 16.9252 6.32857C18.0382 6.25181 18.9785 6.19425 19.7461 6.15587C20.5521 6.07911 20.955 6.04073 20.955 6.04073C21.0702 6.04073 21.4732 6.07911 22.164 6.15587C22.8548 6.23263 23.6032 6.32857 24.4092 6.44371C25.2151 6.55885 25.81 6.69318 26.1938 6.8467C27.0765 7.03859 27.7866 7.38401 28.3239 7.88294C28.8612 8.38187 29.2066 8.95756 29.3601 9.61C29.4752 10.0706 29.4752 10.4352 29.3601 10.7038C29.245 10.9341 29.0339 11.126 28.7268 11.2795C27.8441 11.5482 27.1149 11.7784 26.5392 11.9703C26.0019 12.1238 25.4646 12.1047 24.9273 11.9128C24.7354 11.7209 24.5051 11.5482 24.2365 11.3946C24.0062 11.2411 23.584 11.126 22.97 11.0492C22.3943 10.9341 21.4732 10.8381 20.2066 10.7614C19.132 10.8765 18.1917 10.9341 17.3858 10.9341C16.5798 10.9341 16.1768 11.03 16.1768 11.2219L12.7802 11.3946L9.95937 11.6825C9.57558 11.7209 9.03827 11.7784 8.34744 11.8552C7.65661 11.8936 6.98497 11.9511 6.33252 12.0279C5.68008 12.0663 5.18115 12.1239 4.83573 12.2006ZM20.0299 41.4456C19.6845 41.177 19.3007 40.8316 18.8785 40.4094C18.4947 39.9872 18.3604 39.3923 18.4755 38.6248C18.5907 37.5501 18.7442 36.6098 18.9361 35.8039C19.128 34.9595 19.3583 34.0001 19.6269 32.9254C19.7037 32.4649 19.8956 31.6781 20.2026 30.5651C20.548 29.4521 20.951 28.2432 21.4115 26.9383C21.8721 25.6334 22.3518 24.4052 22.8508 23.2538C23.3497 22.0641 23.7911 21.1814 24.1749 20.6057C24.597 20.2219 25.2111 20.03 26.0171 20.03C26.8614 20.03 27.4371 20.1835 27.7441 20.4905C28.1663 20.836 28.3006 21.45 28.1471 22.3327C27.9936 23.1771 27.4563 24.5012 26.5352 26.305C26.3433 26.7656 26.0938 27.2645 25.7868 27.8018C25.5181 28.3007 25.3262 28.7229 25.2111 29.0683C25.096 29.3753 25.1343 29.5097 25.3262 29.4713C25.5565 29.0491 25.9787 28.5694 26.5927 28.0321C27.2068 27.4564 27.8593 26.8999 28.5501 26.3626C29.2409 25.8253 29.8934 25.3455 30.5074 24.9233C31.1215 24.5012 31.5437 24.2325 31.774 24.1174C32.081 23.9255 32.4264 23.772 32.8102 23.6568C33.2324 23.5033 33.5202 23.3882 33.6737 23.3114C34.5565 22.8892 35.5159 22.7357 36.5522 22.8509C37.6268 22.9276 38.2792 23.2538 38.5095 23.8295C38.5479 24.1366 38.663 24.3668 38.8549 24.5204C39.0852 24.6739 39.2004 24.7506 39.2004 24.7506C39.3539 24.7506 39.4306 24.8082 39.4306 24.9233C39.469 25.0385 39.4882 25.0961 39.4882 25.0961C39.4882 25.3647 39.2195 25.7485 38.6822 26.2474C38.1833 26.7464 37.6268 27.015 37.0127 27.0534C36.5138 27.0918 36.0724 27.1877 35.6886 27.3412C35.3049 27.4948 34.8443 27.6867 34.307 27.9169C32.8486 28.7613 31.5245 29.5097 30.3347 30.1621C29.1834 30.8146 27.9936 31.8124 26.7655 33.1557C26.4968 33.4627 26.209 33.7506 25.9019 34.0192C25.5949 34.2879 25.2879 34.6717 24.9808 35.1706C24.7889 35.3625 24.597 35.7847 24.4051 36.4371C24.2132 37.0896 24.0405 37.7228 23.887 38.3369C23.7719 38.9126 23.7143 39.258 23.7143 39.3732C23.7143 39.3732 23.6567 39.5651 23.5416 39.9488C23.4265 40.2943 23.2346 40.6397 22.9659 40.9851C22.5054 41.5992 22.0448 41.9829 21.5843 42.1365C21.1621 42.29 20.644 42.0597 20.0299 41.4456ZM37.8389 57.7952C36.9946 57.9487 36.4189 57.9679 36.1119 57.8528C35.8048 57.7377 35.3827 57.5458 34.8453 57.2771C34.4232 56.9701 34.1161 56.7398 33.9242 56.5863C33.7323 56.4328 33.598 56.2792 33.5213 56.1257C33.1375 55.3198 33.0799 54.7249 33.3486 54.3411C33.6172 53.9573 34.001 53.7078 34.4999 53.5927C35.0372 53.5159 35.4978 53.4776 35.8816 53.4776C36.1502 53.6311 36.5916 53.7078 37.2057 53.7078C37.8581 53.7078 38.2611 53.6311 38.4146 53.4776C38.4146 53.4776 38.5873 53.3624 38.9327 53.1321C39.3165 52.9402 39.8155 52.7867 40.4295 52.6716C41.6193 52.0959 42.5596 51.501 43.2504 50.8869C43.9412 50.3113 44.7088 49.3134 45.5532 47.8934C45.8986 47.3561 46.2632 46.7228 46.647 45.9936C47.0308 45.3028 47.2994 44.6119 47.4529 43.9211C47.76 43.1535 48.1054 42.1173 48.4892 40.8124C48.9114 39.5075 49.276 38.2218 49.583 36.9553C49.89 35.6504 50.0627 34.6717 50.1011 34.0192C50.3314 31.87 50.7728 29.7975 51.4252 27.8018C52.0777 25.7677 52.5958 23.6185 52.9796 21.3541C53.2098 20.8168 53.3826 20.5097 53.4977 20.433C53.6128 20.3178 53.8623 20.2603 54.2461 20.2603C54.6683 20.2603 55.1672 20.3946 55.7429 20.6632C56.3186 20.8935 56.7407 21.2197 57.0094 21.6419C57.3932 22.3711 57.5659 23.2347 57.5275 24.2325C57.5275 25.192 57.2781 26.0363 56.7791 26.7656C56.3953 27.3029 56.0499 28.1472 55.7429 29.2986C55.4742 30.4116 55.2056 31.8124 54.9369 33.5011C54.745 34.3455 54.5339 35.3433 54.3037 36.4947C54.1118 37.6077 53.9007 38.855 53.6704 40.2367C53.5169 40.6205 53.3058 41.2154 53.0371 42.0213C52.7685 42.7889 52.5958 43.403 52.519 43.8635C52.4806 44.0171 52.3655 44.3241 52.1736 44.7846C51.9817 45.2452 51.7898 45.6866 51.5979 46.1087C51.406 46.5693 51.2717 46.8763 51.1949 47.0298C49.3527 50.7526 47.2227 53.4392 44.8048 55.0895C42.4253 56.7398 40.1033 57.6417 37.8389 57.7952ZM42.6747 41.5032C42.2526 41.5032 41.8112 41.2729 41.3506 40.8124C40.9285 40.3518 40.6406 39.9872 40.4871 39.7186C40.3336 39.3348 40.0457 38.9702 39.6236 38.6248C39.2014 38.2793 38.8368 37.8572 38.5298 37.3582C38.2227 36.8593 38.146 36.2452 38.2995 35.516C38.453 35.0171 38.6833 34.2687 38.9903 33.2708C39.2973 32.2346 39.6619 31.1024 40.0841 29.8743C40.5063 28.6078 40.9285 27.3604 41.3506 26.1323C41.8112 24.9042 42.2334 23.8103 42.6172 22.8509C43.0009 21.8914 43.3272 21.2197 43.5958 20.836C43.8261 20.5289 44.1907 20.2986 44.6896 20.1451C45.1886 19.9916 45.6875 19.9532 46.1864 20.03C46.6854 20.1067 47.05 20.337 47.2802 20.7208C47.7024 21.2581 47.9327 21.7954 47.9711 22.3327C48.0478 22.8317 47.7792 23.6376 47.1651 24.7506C47.0116 25.1728 46.8197 25.6334 46.5894 26.1323C46.3591 26.5928 46.244 26.8999 46.244 27.0534C46.2056 27.1302 46.1289 27.3988 46.0137 27.8594C45.937 28.2815 45.841 28.6845 45.7259 29.0683C45.6107 29.4521 45.4956 29.644 45.3805 29.644C45.2269 29.7975 45.0542 30.2005 44.8623 30.853C44.7088 31.5054 44.5553 32.2346 44.4018 33.0406C44.2867 33.8082 44.2099 34.499 44.1715 35.1131C44.1331 35.6887 44.1907 35.9766 44.3442 35.9766C45.534 35.9766 46.6854 35.612 47.7984 34.8828C48.9114 34.1152 50.1203 32.8487 51.4252 31.0832L51.9433 36.4947C51.406 36.7634 50.9071 37.0512 50.4465 37.3582C49.986 37.6269 49.5638 37.9531 49.18 38.3369C49.0649 38.4904 48.7962 38.7015 48.3741 38.9702C47.9519 39.2388 47.5297 39.4883 47.1075 39.7186C46.7237 39.9105 46.4743 40.0064 46.3591 40.0064C46.3591 40.0064 46.3016 40.0256 46.1864 40.064C46.1097 40.064 46.0713 40.1407 46.0713 40.2943C46.0713 40.371 45.8218 40.5245 45.3229 40.7548C44.824 40.9467 44.3058 41.1194 43.7685 41.2729C43.2312 41.4264 42.8666 41.5032 42.6747 41.5032ZM76.2379 41.1002C75.5087 40.7932 74.9138 40.3326 74.4532 39.7186C74.0311 39.0661 73.82 38.2793 73.82 37.3582C73.82 36.9744 73.8967 36.322 74.0503 35.4009C74.2038 34.4798 74.4149 33.4436 74.6835 32.2922C74.9522 31.1408 75.2208 30.0662 75.4895 29.0683C75.8733 28.3775 76.1227 27.6867 76.2379 26.9958C76.3914 26.305 76.4682 25.8828 76.4682 25.7293C76.5449 25.2688 76.6792 24.6547 76.8711 23.8871C77.063 23.1195 77.2549 22.4287 77.4468 21.8146C77.6771 21.1622 77.8306 20.7976 77.9074 20.7208C78.0993 20.5289 78.4255 20.4138 78.8861 20.3754C79.3466 20.337 79.8072 20.3946 80.2677 20.5481C80.7283 20.6632 81.0353 20.9127 81.1888 21.2965C81.611 21.7571 81.8413 22.4479 81.8796 23.369C81.9564 24.2901 81.7837 25.3647 81.3615 26.5928C81.0161 27.3604 80.6707 28.2623 80.3253 29.2986C79.9799 30.3348 79.6728 31.2943 79.4042 32.177C79.1739 33.0214 79.0396 33.5971 79.0012 33.9041L76.9287 33.8465C77.5812 33.2325 78.1952 32.5992 78.7709 31.9468C79.3466 31.2559 79.7688 30.7186 80.0374 30.3348C80.6899 29.4521 81.2464 28.7229 81.7069 28.1472C82.2059 27.5331 82.8391 26.8039 83.6067 25.9596C84.3743 25.0769 85.1994 24.4628 86.0822 24.1174C86.9649 23.7336 87.6173 23.5417 88.0395 23.5417C88.8839 23.6952 89.6323 24.1366 90.2847 24.8658C90.9755 25.5566 91.3977 26.5928 91.5512 27.9745C91.5512 28.5118 91.4937 29.1451 91.3785 29.8743C91.3018 30.6035 91.2634 30.9681 91.2634 30.9681C91.2634 30.9681 91.5704 30.5843 92.1845 29.8167C92.8369 29.0491 93.7005 28.1856 94.7751 27.2261C95.5043 26.6888 96.2143 26.3818 96.9051 26.305C97.596 26.1899 98.21 26.4201 98.7473 26.9958C99.7452 27.5331 100.474 28.4734 100.935 29.8167C101.396 31.16 101.549 32.676 101.396 34.3647C101.28 35.3625 101.28 36.1685 101.396 36.7826C101.549 37.3582 101.703 37.8764 101.856 38.3369C102.355 39.0277 102.432 39.6418 102.086 40.1791C101.741 40.6781 101.434 40.9275 101.165 40.9275C100.781 40.9275 100.206 40.8508 99.4382 40.6972C98.6706 40.5437 97.9606 40.2751 97.3081 39.8913C96.694 39.5075 96.387 38.9894 96.387 38.3369V34.7676C96.387 33.9233 96.3486 33.3092 96.2719 32.9254C96.2335 32.5033 96.1375 32.2346 95.984 32.1195C95.5619 31.8892 95.0437 32.0619 94.4297 32.6376C93.8156 33.2133 93.144 34.0384 92.4148 35.1131C91.7239 36.1493 90.9755 37.3199 90.1696 38.6248C89.4404 39.8145 88.8455 40.5437 88.3849 40.8124C87.9244 41.0427 87.483 41.0235 87.0608 40.7548C86.2165 40.4862 85.6792 40.1216 85.4489 39.661C85.257 39.1621 85.2378 38.6056 85.3913 37.9915C85.5832 37.3391 85.8135 36.4947 86.0822 35.4585C86.3892 34.4222 86.677 33.4244 86.9457 32.4649C87.2144 31.467 87.3871 30.7378 87.4638 30.2773C87.3103 29.9702 87.0417 29.8743 86.6579 29.9894C86.3124 30.0662 85.9478 30.2389 85.564 30.5075C85.1035 30.8146 84.6046 31.1408 84.0673 31.4862C83.5683 31.8316 82.9734 32.5608 82.2826 33.6738C81.8221 34.403 81.3039 35.209 80.7283 36.0917C80.1526 36.9361 79.6153 37.7037 79.1163 38.3945C78.6558 39.0853 78.272 39.5651 77.9649 39.8337C77.6963 40.5245 77.4468 40.9659 77.2166 41.1578C76.9863 41.3113 76.66 41.2921 76.2379 41.1002ZM117.131 41.8486C115.98 42.5011 114.752 42.8849 113.447 43C112.18 43.0768 110.99 42.9041 109.877 42.4819C108.764 42.0213 107.863 41.3497 107.172 40.467C106.788 39.968 106.423 39.1813 106.078 38.1066C105.733 36.9936 105.675 35.4968 105.905 33.6163C106.135 31.8508 106.673 30.0662 107.517 28.2623C108.4 26.4585 109.474 24.8658 110.741 23.4841C112.008 22.1025 113.389 21.1622 114.886 20.6632C115.423 20.4713 115.961 20.337 116.498 20.2603C117.074 20.1451 117.822 20.1259 118.743 20.2027C119.626 20.3178 120.413 20.5481 121.103 20.8935C121.794 21.2006 122.293 21.546 122.6 21.9298C123.214 22.5438 123.617 23.1387 123.809 23.7144C124.001 24.2901 124.078 24.8466 124.039 25.3839C123.848 26.612 123.291 27.9361 122.37 29.3562C121.487 30.7762 120.24 31.8316 118.628 32.5224C117.976 32.7911 117.208 32.9638 116.325 33.0406C115.442 33.1173 114.234 33.0022 112.698 32.6952C111.777 32.5033 111.163 32.5992 110.856 32.983C110.587 33.3668 110.472 34.1152 110.511 35.2282C110.587 35.919 110.741 36.5331 110.971 37.0704C111.24 37.5693 111.72 37.9147 112.411 38.1066C113.293 38.2602 113.926 38.2793 114.31 38.1642C114.694 38.0107 115.174 37.7996 115.75 37.5309C116.057 37.3391 116.344 37.128 116.613 36.8977C116.92 36.6674 117.208 36.4371 117.477 36.2069C117.784 35.9766 118.033 35.8039 118.225 35.6887C118.417 35.5352 118.609 35.4393 118.801 35.4009C118.993 35.3625 119.184 35.3433 119.376 35.3433C119.799 35.3817 120.202 35.612 120.585 36.0342C120.969 36.4563 121.219 36.8593 121.334 37.2431C121.334 37.5501 121.142 37.9915 120.758 38.5672C120.374 39.1045 119.856 39.6802 119.204 40.2943C118.59 40.8699 117.899 41.3881 117.131 41.8486ZM116.383 29.0107C116.651 28.8956 117.035 28.627 117.534 28.2048C118.071 27.7826 118.551 27.3412 118.973 26.8807C119.396 26.3818 119.607 25.998 119.607 25.7293C119.607 25.3071 119.319 24.9425 118.743 24.6355C118.206 24.3285 117.496 24.2709 116.613 24.4628C116.306 24.5396 115.941 24.7506 115.519 25.0961C115.097 25.4415 114.675 25.8445 114.253 26.305C113.831 26.7272 113.466 27.1493 113.159 27.5715C112.852 27.9553 112.641 28.2623 112.526 28.4926C112.679 28.6845 112.986 28.838 113.447 28.9532C113.907 29.0683 114.406 29.1259 114.944 29.1259C115.519 29.1259 115.999 29.0875 116.383 29.0107ZM130.947 33.7314C129.872 33.9233 129.028 33.4819 128.414 32.4073C127.8 31.2943 127.838 29.3562 128.529 26.5928C128.759 26.1323 128.951 25.6909 129.105 25.2688C129.258 24.8082 129.335 24.4436 129.335 24.175C129.488 23.676 129.68 23.1003 129.911 22.4479C130.179 21.7571 130.448 21.1238 130.717 20.5481C130.985 19.934 131.177 19.5311 131.292 19.3392C131.446 19.3392 131.599 19.2048 131.753 18.9362C131.945 18.6675 132.041 18.3989 132.041 18.1302C132.041 17.8232 132.098 17.4778 132.213 17.094C132.367 16.7102 132.52 16.4415 132.674 16.288C132.674 16.0961 132.751 15.885 132.904 15.6547C133.058 15.4245 133.134 15.2326 133.134 15.0791C133.134 14.9255 133.173 14.7912 133.25 14.6761C133.365 14.5609 133.422 14.4266 133.422 14.2731C133.768 13.659 134.209 12.7571 134.746 11.5674C135.322 10.3392 135.879 9.05351 136.416 7.71023C136.992 6.36695 137.471 5.1772 137.855 4.14096C138.239 3.10471 138.431 2.47146 138.431 2.24118C138.508 1.93414 138.623 1.6463 138.776 1.37764C138.93 1.10899 139.16 1.01304 139.467 1.0898C139.621 0.974662 139.851 0.917094 140.158 0.917094C140.465 0.878713 140.695 0.859522 140.849 0.859522C140.849 0.859522 141.021 0.936281 141.367 1.0898C141.712 1.24332 142.019 1.47359 142.288 1.78063C142.595 2.04928 142.768 2.41388 142.806 2.87444C142.844 3.33499 142.864 3.79554 142.864 4.25609C142.825 4.9853 142.557 5.81045 142.058 6.73156C141.559 7.65266 141.002 8.66971 140.388 9.78271C140.004 10.5119 139.621 11.2027 139.237 11.8552C138.891 12.5076 138.719 12.9106 138.719 13.0641C138.719 13.2177 138.642 13.4479 138.488 13.755C138.335 14.062 138.162 14.4458 137.97 14.9063C137.74 15.2901 137.51 15.7507 137.279 16.288C137.088 16.8253 136.915 17.3242 136.761 17.7848C136.608 18.207 136.531 18.4756 136.531 18.5908C136.493 18.7443 136.435 18.8978 136.358 19.0513C136.32 19.2048 136.224 19.3583 136.07 19.5119C135.917 19.5119 135.821 19.627 135.783 19.8573C135.783 20.0492 135.783 20.1451 135.783 20.1451C135.783 20.2986 135.687 20.6632 135.495 21.2389C135.341 21.7762 135.073 22.4287 134.689 23.1963C133.96 25.2304 133.441 26.8615 133.134 28.0896C132.827 29.2794 132.636 30.2964 132.559 31.1408C132.482 32.0619 132.271 32.6952 131.925 33.0406C131.58 33.3476 131.254 33.5779 130.947 33.7314ZM127.896 42.6546C127.09 42.9616 126.418 43.0959 125.881 43.0576C125.343 43.0576 124.749 42.8081 124.096 42.3092C123.329 41.5416 123.06 40.774 123.29 40.0064C123.559 39.2004 124.25 38.4329 125.363 37.7037C126.13 37.2047 126.687 36.9553 127.032 36.9553C127.416 36.9169 127.972 37.0512 128.702 37.3582C130.007 38.1642 130.582 39.0661 130.429 40.064C130.275 41.0235 129.431 41.887 127.896 42.6546Z" fill="#64748B"/>
</svg>
