<svg width="92" height="38" viewBox="0 0 92 38" fill="none" xmlns="http://www.w3.org/2000/svg">
<path d="M2.2918 29.8264C1.84759 29.8511 1.47742 29.6413 1.18129 29.1971C0.885154 28.7529 0.749425 28.3827 0.774103 28.0866C0.798781 27.6918 0.909832 27.1242 1.10725 26.3838C1.30468 25.6435 1.52678 24.8908 1.77356 24.1258C2.02034 23.3608 2.24244 22.7562 2.43987 22.312C2.53858 21.9171 2.62495 21.5716 2.69898 21.2755C2.7977 20.9547 2.85939 20.7449 2.88407 20.6462C2.9581 20.5475 3.06915 20.2884 3.21722 19.8688C3.38997 19.4493 3.5257 19.0421 3.62441 18.6473C3.67376 18.4499 3.77248 18.0797 3.92054 17.5368C4.09329 16.9692 4.29071 16.3152 4.51281 15.5749C4.75959 14.8345 4.99403 14.1065 5.21614 13.3909C5.46292 12.6752 5.67268 12.0459 5.84543 11.503C6.01817 10.9601 6.12922 10.6023 6.17858 10.4295C6.376 10.1334 6.52407 9.84958 6.62278 9.57813C6.72149 9.30667 6.78319 9.12159 6.80787 9.02287C6.95593 8.92416 7.04231 8.80077 7.06698 8.6527C7.09166 8.47996 7.104 8.34423 7.104 8.24552C7.104 8.12213 7.14102 8.02341 7.21505 7.94938C7.31376 7.87535 7.36312 7.78897 7.36312 7.69026C7.46183 7.61623 7.52353 7.60389 7.54821 7.65325C7.57288 7.7026 7.64692 7.66558 7.77031 7.54219L7.95539 6.28362L11.2499 6.2466C11.2005 6.54274 11.1265 6.91291 11.0278 7.35711C10.9291 7.77664 10.6946 8.34423 10.3245 9.05989C10.2011 9.55345 10.053 9.99765 9.88027 10.3925C9.73221 10.7873 9.67051 11.0465 9.69519 11.1699C9.64583 11.2192 9.53478 11.466 9.36204 11.9102C9.21397 12.3544 9.02888 12.8973 8.80678 13.5389C8.60936 14.1806 8.3996 14.8222 8.17749 15.4638C7.98007 16.1054 7.79499 16.673 7.62224 17.1666C7.47417 17.6355 7.37546 17.9316 7.3261 18.055C7.12868 18.4499 6.90658 19.0298 6.6598 19.7948C6.41302 20.5598 6.04285 21.5963 5.54929 22.9042C5.35187 23.2991 5.10509 23.8913 4.80895 24.681C4.53749 25.4707 4.31539 26.1864 4.14265 26.828C3.87119 27.7905 3.62441 28.4815 3.40231 28.901C3.20488 29.3205 3.0198 29.5673 2.84705 29.6413C2.67431 29.74 2.48922 29.8017 2.2918 29.8264ZM2.62495 8.06043C1.61315 8.15914 0.92217 8.03575 0.552001 7.69026C0.206509 7.34477 0.0831194 6.9746 0.181831 6.57975C0.255865 6.28362 0.428611 6.03684 0.700069 5.83941C0.996204 5.61731 1.52678 5.43223 2.2918 5.28416C2.56326 5.2348 2.90875 5.17311 3.32827 5.09908C3.77248 5.02504 4.192 4.95101 4.58685 4.87697C5.40122 4.77826 6.06753 4.69189 6.58576 4.61785C7.12868 4.54382 7.68393 4.48213 8.25153 4.43277C8.81912 4.38341 9.53478 4.33406 10.3985 4.2847C11.1142 4.23535 11.7188 4.19833 12.2123 4.17365C12.7306 4.1243 12.9897 4.09962 12.9897 4.09962C13.0637 4.09962 13.3229 4.1243 13.7671 4.17365C14.2113 4.22301 14.6925 4.2847 15.2107 4.35874C15.729 4.43277 16.1115 4.51914 16.3582 4.61785C16.9258 4.74124 17.3824 4.96335 17.7279 5.28416C18.0734 5.60497 18.2955 5.97514 18.3942 6.39467C18.4682 6.6908 18.4682 6.92524 18.3942 7.09799C18.3201 7.24606 18.1844 7.36945 17.987 7.46816C17.4194 7.64091 16.9505 7.78897 16.5803 7.91236C16.2349 8.01108 15.8894 7.99874 15.5439 7.87535C15.4205 7.75196 15.2724 7.64091 15.0997 7.54219C14.9516 7.44348 14.6801 7.36945 14.2853 7.32009C13.9151 7.24606 13.3229 7.18436 12.5085 7.13501C11.8175 7.20904 11.2129 7.24606 10.6946 7.24606C10.1764 7.24606 9.91729 7.30775 9.91729 7.43114L7.73329 7.54219L5.91946 7.72728C5.67268 7.75196 5.32719 7.78897 4.88298 7.83833C4.43878 7.86301 4.00692 7.90002 3.58739 7.94938C3.16787 7.97406 2.84705 8.01108 2.62495 8.06043ZM12.3948 26.865C12.1727 26.6923 11.9259 26.4702 11.6545 26.1987C11.4077 25.9273 11.3213 25.5448 11.3954 25.0512C11.4694 24.3602 11.5681 23.7556 11.6915 23.2374C11.8149 22.6945 11.963 22.0775 12.1357 21.3865C12.1851 21.0904 12.3084 20.5845 12.5059 19.8688C12.728 19.1532 12.9871 18.3758 13.2832 17.5368C13.5794 16.6977 13.8878 15.908 14.2087 15.1677C14.5295 14.4027 14.8133 13.8351 15.06 13.4649C15.3315 13.2181 15.7263 13.0947 16.2446 13.0947C16.7875 13.0947 17.1577 13.1934 17.3551 13.3909C17.6266 13.613 17.7129 14.0078 17.6142 14.5754C17.5155 15.1183 17.17 15.9697 16.5777 17.1296C16.4543 17.4257 16.2939 17.7465 16.0965 18.092C15.9238 18.4128 15.8004 18.6843 15.7263 18.9064C15.6523 19.1038 15.677 19.1902 15.8004 19.1655C15.9485 18.8941 16.2199 18.5856 16.6148 18.2401C17.0096 17.8699 17.4291 17.5121 17.8733 17.1666C18.3175 16.8211 18.7371 16.5126 19.1319 16.2412C19.5268 15.9697 19.7982 15.797 19.9463 15.7229C20.1437 15.5996 20.3658 15.5008 20.6126 15.4268C20.884 15.3281 21.0691 15.2541 21.1678 15.2047C21.7354 14.9332 22.3524 14.8345 23.0187 14.9086C23.7097 14.9579 24.1292 15.1677 24.2773 15.5379C24.3019 15.7353 24.376 15.8833 24.4994 15.9821C24.6474 16.0808 24.7215 16.1301 24.7215 16.1301C24.8202 16.1301 24.8695 16.1671 24.8695 16.2412C24.8942 16.3152 24.9066 16.3522 24.9066 16.3522C24.9066 16.525 24.7338 16.7718 24.3883 17.0926C24.0675 17.4134 23.7097 17.5861 23.3148 17.6108C22.994 17.6355 22.7102 17.6972 22.4634 17.7959C22.2167 17.8946 21.9205 18.018 21.575 18.1661C20.6373 18.709 19.7859 19.1902 19.0209 19.6097C18.2805 20.0292 17.5155 20.6709 16.7258 21.5346C16.5531 21.732 16.368 21.9171 16.1706 22.0899C15.9731 22.2626 15.7757 22.5094 15.5783 22.8302C15.4549 22.9536 15.3315 23.225 15.2081 23.6446C15.0847 24.0641 14.9737 24.4713 14.875 24.8661C14.8009 25.2363 14.7639 25.4584 14.7639 25.5324C14.7639 25.5324 14.7269 25.6558 14.6529 25.9026C14.5788 26.1247 14.4554 26.3468 14.2827 26.5689C13.9866 26.9638 13.6904 27.2105 13.3943 27.3092C13.1228 27.408 12.7897 27.2599 12.3948 26.865ZM23.8461 37.3779C23.3032 37.4766 22.933 37.4889 22.7356 37.4149C22.5381 37.3408 22.2667 37.2175 21.9212 37.0447C21.6497 36.8473 21.4523 36.6992 21.3289 36.6005C21.2055 36.5018 21.1192 36.4031 21.0698 36.3044C20.823 35.7861 20.786 35.4036 20.9588 35.1568C21.1315 34.9101 21.3783 34.7497 21.6991 34.6756C22.0446 34.6263 22.3407 34.6016 22.5875 34.6016C22.7602 34.7003 23.044 34.7497 23.4389 34.7497C23.8584 34.7497 24.1175 34.7003 24.2162 34.6016C24.2162 34.6016 24.3273 34.5276 24.5494 34.3795C24.7962 34.2561 25.117 34.1574 25.5118 34.0834C26.2769 33.7132 26.8815 33.3307 27.3257 32.9358C27.7699 32.5657 28.2634 31.924 28.8063 31.0109C29.0284 30.6655 29.2629 30.2583 29.5097 29.7894C29.7564 29.3452 29.9292 28.901 30.0279 28.4568C30.2253 27.9632 30.4474 27.2969 30.6942 26.4579C30.9657 25.6188 31.2001 24.7921 31.3975 23.9777C31.595 23.1387 31.706 22.5094 31.7307 22.0899C31.8788 20.7079 32.1626 19.3753 32.5821 18.092C33.0016 16.7841 33.3348 15.4021 33.5815 13.9461C33.7296 13.6006 33.8407 13.4032 33.9147 13.3539C33.9887 13.2798 34.1491 13.2428 34.3959 13.2428C34.6674 13.2428 34.9882 13.3292 35.3583 13.5019C35.7285 13.65 36 13.8598 36.1727 14.1312C36.4195 14.6001 36.5306 15.1553 36.5059 15.797C36.5059 16.4139 36.3455 16.9568 36.0247 17.4257C35.7779 17.7712 35.5558 18.3141 35.3583 19.0545C35.1856 19.7701 35.0129 20.6709 34.8401 21.7567C34.7167 22.2996 34.581 22.9412 34.4329 23.6816C34.3095 24.3972 34.1738 25.1993 34.0257 26.0877C33.927 26.3345 33.7913 26.717 33.6186 27.2352C33.4458 27.7288 33.3348 28.1236 33.2854 28.4198C33.2607 28.5185 33.1867 28.7159 33.0633 29.012C32.9399 29.3082 32.8165 29.592 32.6931 29.8634C32.5697 30.1596 32.4834 30.357 32.434 30.4557C31.2495 32.8495 29.8798 34.5769 28.3251 35.6381C26.7951 36.6992 25.3021 37.2791 23.8461 37.3779ZM26.9555 26.9021C26.684 26.9021 26.4002 26.754 26.1041 26.4579C25.8327 26.1617 25.6476 25.9273 25.5489 25.7545C25.4501 25.5078 25.2651 25.2733 24.9936 25.0512C24.7221 24.8291 24.4877 24.5577 24.2903 24.2368C24.0929 23.916 24.0435 23.5212 24.1422 23.0523C24.2409 22.7315 24.389 22.2503 24.5864 21.6086C24.7838 20.9423 25.0183 20.2143 25.2897 19.4246C25.5612 18.6103 25.8327 17.8082 26.1041 17.0185C26.4002 16.2288 26.6717 15.5255 26.9185 14.9086C27.1653 14.2916 27.375 13.8598 27.5478 13.613C27.6958 13.4156 27.9303 13.2675 28.2511 13.1688C28.5719 13.0701 28.8927 13.0454 29.2135 13.0947C29.5343 13.1441 29.7688 13.2922 29.9169 13.5389C30.1883 13.8844 30.3364 14.2299 30.3611 14.5754C30.4104 14.8962 30.2377 15.4145 29.8428 16.1301C29.7441 16.4016 29.6207 16.6977 29.4727 17.0185C29.3246 17.3147 29.2506 17.5121 29.2506 17.6108C29.2259 17.6602 29.1765 17.8329 29.1025 18.129C29.0531 18.4005 28.9914 18.6596 28.9174 18.9064C28.8434 19.1532 28.7693 19.2766 28.6953 19.2766C28.5966 19.3753 28.4855 19.6344 28.3621 20.0539C28.2634 20.4735 28.1647 20.9423 28.066 21.4606C27.992 21.9541 27.9426 22.3983 27.9179 22.7932C27.8933 23.1633 27.9303 23.3484 28.029 23.3484C28.794 23.3484 29.5343 23.114 30.25 22.6451C30.9657 22.1516 31.743 21.3372 32.5821 20.202L32.9152 23.6816C32.5697 23.8543 32.2489 24.0394 31.9528 24.2368C31.6567 24.4096 31.3852 24.6193 31.1384 24.8661C31.0644 24.9648 30.8916 25.1006 30.6202 25.2733C30.3487 25.4461 30.0773 25.6065 29.8058 25.7545C29.559 25.8779 29.3986 25.9396 29.3246 25.9396C29.3246 25.9396 29.2876 25.952 29.2135 25.9766C29.1642 25.9766 29.1395 26.026 29.1395 26.1247C29.1395 26.1741 28.9791 26.2728 28.6583 26.4208C28.3375 26.5442 28.0043 26.6553 27.6588 26.754C27.3133 26.8527 27.0789 26.9021 26.9555 26.9021ZM48.5367 26.6429C48.0678 26.4455 47.6853 26.1494 47.3891 25.7545C47.1177 25.335 46.982 24.8291 46.982 24.2368C46.982 23.9901 47.0313 23.5705 47.13 22.9783C47.2287 22.386 47.3645 21.7197 47.5372 20.9793C47.71 20.239 47.8827 19.548 48.0555 18.9064C48.3022 18.4622 48.4626 18.018 48.5367 17.5738C48.6354 17.1296 48.6847 16.8581 48.6847 16.7594C48.7341 16.4633 48.8205 16.0684 48.9439 15.5749C49.0672 15.0813 49.1906 14.6371 49.314 14.2423C49.4621 13.8227 49.5608 13.5883 49.6102 13.5389C49.7336 13.4156 49.9433 13.3415 50.2395 13.3168C50.5356 13.2922 50.8317 13.3292 51.1279 13.4279C51.424 13.5019 51.6214 13.6623 51.7201 13.9091C51.9916 14.2052 52.1397 14.6494 52.1643 15.2417C52.2137 15.834 52.1026 16.525 51.8312 17.3147C51.6091 17.8082 51.387 18.3882 51.1649 19.0545C50.9428 19.7208 50.7454 20.3377 50.5726 20.9053C50.4245 21.4482 50.3382 21.8184 50.3135 22.0158L48.9809 21.9788C49.4004 21.584 49.7952 21.1768 50.1654 20.7572C50.5356 20.313 50.807 19.9676 50.9798 19.7208C51.3993 19.1532 51.7571 18.6843 52.0533 18.3141C52.3741 17.9193 52.7813 17.4504 53.2748 16.9075C53.7684 16.3399 54.299 15.945 54.8666 15.7229C55.4342 15.4762 55.8537 15.3528 56.1251 15.3528C56.6681 15.4515 57.1493 15.7353 57.5688 16.2042C58.013 16.6484 58.2845 17.3147 58.3832 18.2031C58.3832 18.5486 58.3462 18.9558 58.2721 19.4246C58.2228 19.8935 58.1981 20.128 58.1981 20.128C58.1981 20.128 58.3955 19.8812 58.7904 19.3876C59.2099 18.8941 59.7651 18.3388 60.4561 17.7219C60.925 17.3764 61.3816 17.1789 61.8258 17.1296C62.27 17.0556 62.6648 17.2036 63.0103 17.5738C63.6519 17.9193 64.1208 18.5239 64.4169 19.3876C64.7131 20.2513 64.8118 21.2261 64.7131 22.312C64.639 22.9536 64.639 23.4718 64.7131 23.8667C64.8118 24.2368 64.9105 24.57 65.0092 24.8661C65.33 25.3103 65.3794 25.7052 65.1573 26.0507C64.9352 26.3715 64.7378 26.5319 64.565 26.5319C64.3182 26.5319 63.9481 26.4825 63.4545 26.3838C62.9609 26.2851 62.5044 26.1124 62.0849 25.8656C61.69 25.6188 61.4926 25.2857 61.4926 24.8661V22.5711C61.4926 22.0282 61.4679 21.6333 61.4186 21.3865C61.3939 21.1151 61.3322 20.9423 61.2335 20.8683C60.962 20.7202 60.6289 20.8313 60.234 21.2015C59.8392 21.5716 59.4073 22.1022 58.9384 22.7932C58.4942 23.4595 58.013 24.2122 57.4948 25.0512C57.0259 25.8162 56.6434 26.2851 56.3472 26.4579C56.0511 26.6059 55.7673 26.5936 55.4959 26.4208C54.9529 26.2481 54.6075 26.0137 54.4594 25.7175C54.336 25.3967 54.3237 25.0389 54.4224 24.644C54.5458 24.2245 54.6938 23.6816 54.8666 23.0153C55.064 22.349 55.2491 21.7073 55.4218 21.0904C55.5946 20.4488 55.7056 19.9799 55.755 19.6838C55.6563 19.4863 55.4835 19.4246 55.2367 19.4987C55.0146 19.548 54.7802 19.6591 54.5334 19.8318C54.2373 20.0292 53.9165 20.239 53.571 20.4611C53.2502 20.6832 52.8677 21.1521 52.4235 21.8678C52.1273 22.3366 51.7942 22.8549 51.424 23.4225C51.0538 23.9654 50.7083 24.4589 50.3875 24.9031C50.0914 25.3473 49.8446 25.6558 49.6472 25.8286C49.4744 26.2728 49.314 26.5566 49.166 26.68C49.0179 26.7787 48.8081 26.7663 48.5367 26.6429ZM74.8311 27.1242C74.0908 27.5437 73.3011 27.7905 72.4621 27.8645C71.6477 27.9139 70.8827 27.8028 70.167 27.5313C69.4513 27.2352 68.8714 26.8033 68.4272 26.2358C68.1804 25.9149 67.946 25.409 67.7239 24.7181C67.5018 24.0024 67.4648 23.04 67.6128 21.8307C67.7609 20.6956 68.1064 19.548 68.6493 18.3882C69.2169 17.2283 69.9079 16.2042 70.7223 15.3158C71.5366 14.4273 72.425 13.8227 73.3875 13.5019C73.733 13.3785 74.0785 13.2922 74.424 13.2428C74.7941 13.1688 75.2753 13.1564 75.8676 13.2058C76.4352 13.2798 76.9411 13.4279 77.3853 13.65C77.8295 13.8474 78.1503 14.0695 78.3478 14.3163C78.7426 14.7111 79.0017 15.0937 79.1251 15.4638C79.2485 15.834 79.2979 16.1918 79.2732 16.5373C79.1498 17.327 78.792 18.1784 78.1997 19.0915C77.6321 20.0046 76.8301 20.6832 75.7936 21.1274C75.3741 21.3002 74.8805 21.4112 74.3129 21.4606C73.7453 21.5099 72.968 21.4359 71.9808 21.2385C71.3886 21.1151 70.9937 21.1768 70.7963 21.4236C70.6235 21.6703 70.5495 22.1516 70.5742 22.8672C70.6235 23.3114 70.7223 23.7063 70.8703 24.0518C71.0431 24.3726 71.3515 24.5947 71.7958 24.7181C72.3633 24.8168 72.7705 24.8291 73.0173 24.7551C73.2641 24.6564 73.5726 24.5206 73.9427 24.3479C74.1402 24.2245 74.3252 24.0888 74.498 23.9407C74.6954 23.7926 74.8805 23.6446 75.0532 23.4965C75.2507 23.3484 75.4111 23.2374 75.5345 23.1633C75.6579 23.0646 75.7812 23.0029 75.9046 22.9783C76.028 22.9536 76.1514 22.9412 76.2748 22.9412C76.5463 22.9659 76.8054 23.114 77.0522 23.3855C77.2989 23.6569 77.4593 23.916 77.5334 24.1628C77.5334 24.3602 77.41 24.644 77.1632 25.0142C76.9164 25.3597 76.5833 25.7299 76.1638 26.1247C75.7689 26.4949 75.3247 26.828 74.8311 27.1242ZM74.3499 18.8694C74.5227 18.7953 74.7694 18.6226 75.0903 18.3511C75.4358 18.0797 75.7442 17.7959 76.0157 17.4998C76.2871 17.1789 76.4229 16.9322 76.4229 16.7594C76.4229 16.488 76.2378 16.2535 75.8676 16.0561C75.5221 15.8587 75.0656 15.8217 74.498 15.945C74.3006 15.9944 74.0661 16.1301 73.7947 16.3522C73.5232 16.5743 73.2518 16.8334 72.9803 17.1296C72.7088 17.401 72.4744 17.6725 72.277 17.944C72.0795 18.1907 71.9438 18.3882 71.8698 18.5362C71.9685 18.6596 72.1659 18.7583 72.4621 18.8324C72.7582 18.9064 73.079 18.9434 73.4245 18.9434C73.7947 18.9434 74.1031 18.9187 74.3499 18.8694ZM83.7146 21.9048C83.0236 22.0282 82.4807 21.7444 82.0859 21.0534C81.691 20.3377 81.7157 19.0915 82.1599 17.3147C82.308 17.0185 82.4314 16.7347 82.5301 16.4633C82.6288 16.1671 82.6782 15.9327 82.6782 15.76C82.7769 15.4391 82.9003 15.069 83.0483 14.6494C83.2211 14.2052 83.3938 13.7981 83.5666 13.4279C83.7393 13.033 83.8627 12.7739 83.9367 12.6505C84.0354 12.6505 84.1342 12.5642 84.2329 12.3914C84.3563 12.2187 84.418 12.0459 84.418 11.8732C84.418 11.6758 84.455 11.4537 84.529 11.2069C84.6277 10.9601 84.7264 10.7873 84.8251 10.6886C84.8251 10.5652 84.8745 10.4295 84.9732 10.2814C85.0719 10.1334 85.1213 10.01 85.1213 9.91128C85.1213 9.81257 85.146 9.72619 85.1953 9.65216C85.2693 9.57813 85.3064 9.49175 85.3064 9.39304C85.5285 8.99819 85.8123 8.41826 86.1578 7.65325C86.5279 6.86355 86.8858 6.03684 87.2312 5.17311C87.6014 4.30938 87.9099 3.54436 88.1567 2.87806C88.4034 2.21175 88.5268 1.80457 88.5268 1.6565C88.5762 1.45908 88.6502 1.27399 88.7489 1.10124C88.8477 0.928498 88.9957 0.866804 89.1931 0.916159C89.2919 0.842126 89.4399 0.805109 89.6373 0.805109C89.8348 0.78043 89.9828 0.768091 90.0815 0.768091C90.0815 0.768091 90.1926 0.817447 90.4147 0.916159C90.6368 1.01487 90.8342 1.16294 91.007 1.36036C91.2044 1.53311 91.3154 1.76755 91.3401 2.06369C91.3648 2.35982 91.3771 2.65596 91.3771 2.95209C91.3525 3.42097 91.1797 3.95155 90.8589 4.54382C90.5381 5.13609 90.1803 5.79006 89.7854 6.50572C89.5386 6.9746 89.2919 7.4188 89.0451 7.83833C88.823 8.25785 88.7119 8.51697 88.7119 8.61569C88.7119 8.7144 88.6626 8.86247 88.5639 9.05989C88.4651 9.25731 88.3541 9.50409 88.2307 9.80023C88.0826 10.047 87.9346 10.3431 87.7865 10.6886C87.6631 11.0341 87.5521 11.3549 87.4533 11.6511C87.3546 11.9225 87.3053 12.0953 87.3053 12.1693C87.2806 12.268 87.2436 12.3667 87.1942 12.4654C87.1695 12.5642 87.1079 12.6629 87.0091 12.7616C86.9104 12.7616 86.8487 12.8356 86.8241 12.9837C86.8241 13.1071 86.8241 13.1688 86.8241 13.1688C86.8241 13.2675 86.7624 13.5019 86.639 13.8721C86.5403 14.2176 86.3675 14.6371 86.1207 15.1307C85.6519 16.4386 85.3187 17.4874 85.1213 18.2771C84.9239 19.0421 84.8005 19.6961 84.7511 20.239C84.7018 20.8313 84.566 21.2385 84.3439 21.4606C84.1218 21.658 83.9121 21.8061 83.7146 21.9048ZM81.7527 27.6424C81.2345 27.8398 80.8026 27.9262 80.4571 27.9015C80.1116 27.9015 79.7291 27.7411 79.3096 27.4203C78.8161 26.9267 78.6433 26.4332 78.7914 25.9396C78.9641 25.4214 79.4083 24.9278 80.124 24.4589C80.6175 24.1381 80.9754 23.9777 81.1975 23.9777C81.4443 23.953 81.8021 24.0394 82.271 24.2368C83.11 24.7551 83.4802 25.335 83.3815 25.9766C83.2828 26.5936 82.7399 27.1488 81.7527 27.6424Z" fill="#64748B"/>
</svg>
