<svg width="220" height="34" viewBox="0 0 220 34" fill="none" xmlns="http://www.w3.org/2000/svg">
<path d="M5.18075 29.4431C4.81058 29.2951 4.37871 29.0853 3.88515 28.8138C3.39159 28.5671 2.92271 28.2339 2.47851 27.8144C2.03431 27.3948 1.68881 26.8889 1.44203 26.2967C1.19525 25.581 1.02251 24.8777 0.923797 24.1867C0.849763 23.4957 0.825085 22.6937 0.849763 21.7806C0.849763 20.4974 0.936136 19.3868 1.10888 18.4491C1.30631 17.4866 1.60244 16.5119 1.99729 15.5247C2.04664 15.4507 2.13302 15.2409 2.25641 14.8955C2.40448 14.5253 2.56488 14.1304 2.73763 13.7109C2.93505 13.2914 3.08312 12.9706 3.18183 12.7485C3.37926 12.3289 3.67539 11.7737 4.07024 11.0827C4.48976 10.367 4.93397 9.67607 5.40285 9.00976C6.11851 7.94861 6.72312 7.08488 7.21668 6.41857C7.71024 5.72759 8.17912 5.14766 8.62332 4.67878C9.0922 4.20989 9.5981 3.75335 10.141 3.30915C10.7086 2.86495 11.4119 2.35905 12.251 1.79145C12.7939 1.39661 13.4849 1.14983 14.3239 1.05111C15.1877 0.952403 16.0267 1.08813 16.8411 1.4583C17.6555 1.80379 18.2601 2.4701 18.6549 3.45722C18.9264 3.97545 19.0498 4.62942 19.0251 5.41912C19.0004 6.18413 18.8523 7.01084 18.5809 7.89925C18.3094 8.76298 17.9639 9.57735 17.5444 10.3424C17.1249 11.1074 16.656 11.7243 16.1378 12.1932C15.817 12.4894 15.3851 12.5387 14.8422 12.3413C14.3239 12.1439 13.8921 11.8847 13.5466 11.5639C13.3245 11.1444 13.2011 10.8976 13.1764 10.8236C13.1764 10.7496 13.2258 10.7002 13.3245 10.6755C13.4725 10.5028 13.67 10.2066 13.9167 9.78712C14.1635 9.36759 14.4103 8.92339 14.6571 8.45451C14.9039 7.96095 15.0766 7.5661 15.1753 7.26996C15.3727 6.23349 15.5085 5.55484 15.5825 5.23403C15.6565 4.88854 15.5825 4.60474 15.3604 4.38264C15.2617 4.28393 15.1136 4.24691 14.9162 4.27159C14.7435 4.29627 14.4473 4.41966 14.0278 4.64176C13.4602 4.88854 12.7816 5.39444 11.9919 6.15945C11.2268 6.89979 10.4618 7.7882 9.69682 8.82468C8.7097 10.1326 7.88298 11.2925 7.21668 12.3043C6.55037 13.3161 6.04448 14.3525 5.69898 15.4137C5.64963 15.5124 5.56326 15.6975 5.43987 15.9689C5.34115 16.2404 5.2918 16.3761 5.2918 16.3761C5.31648 16.4748 5.27946 16.7216 5.18075 17.1165C5.08204 17.4866 4.97098 17.8075 4.84759 18.0789C4.57614 19.2141 4.41573 20.3123 4.36637 21.3734C4.31702 22.4099 4.37871 23.323 4.55146 24.1127C4.74888 24.8777 5.03268 25.4453 5.40285 25.8155C5.72366 26.0376 6.13085 26.1116 6.62441 26.0376C7.11797 25.9635 7.68556 25.7908 8.32719 25.5193C8.96882 25.2479 9.6598 24.9517 10.4001 24.6309C10.9924 24.3841 11.5353 24.1127 12.0289 23.8165C12.5224 23.5204 12.8926 23.2613 13.1394 23.0392C13.3368 22.8911 13.5836 22.7431 13.8797 22.595C14.2005 22.4222 14.472 22.3359 14.6941 22.3359C15.0396 22.2125 15.2987 22.3112 15.4715 22.632C15.6442 22.9528 15.7306 23.36 15.7306 23.8536C15.7306 24.1991 15.4838 24.6186 14.9902 25.1121C14.4967 25.6057 13.9538 26.0252 13.3615 26.3707C13.1641 26.5681 12.8926 26.7532 12.5471 26.926C12.2263 27.074 11.8932 27.2098 11.5477 27.3332C11.0294 27.728 10.3878 28.1105 9.62278 28.4807C8.85776 28.8508 8.08041 29.1346 7.29071 29.3321C6.5257 29.5295 5.82237 29.5665 5.18075 29.4431ZM20.078 27.4072C19.6092 27.5306 19.1896 27.3948 18.8195 27C18.4493 26.6298 18.1902 26.0746 18.0421 25.3342C17.894 24.5939 17.9187 23.7672 18.1161 22.8541C18.2395 22.558 18.3382 22.2742 18.4123 22.0027C18.4863 21.7066 18.5233 21.4721 18.5233 21.2994C18.5727 21.0526 18.6714 20.6948 18.8195 20.2259C18.9675 19.7323 19.1279 19.2264 19.3007 18.7082C19.4734 18.19 19.6338 17.7334 19.7819 17.3386C19.9547 16.919 20.0657 16.6599 20.1151 16.5612C20.2138 16.5612 20.3001 16.4748 20.3742 16.3021C20.4482 16.1294 20.4852 15.9566 20.4852 15.7839C20.4852 15.5864 20.5222 15.3643 20.5963 15.1176C20.695 14.8708 20.7937 14.698 20.8924 14.5993C20.8924 14.4759 20.9171 14.3402 20.9665 14.1921C21.0405 14.0194 21.0775 13.8837 21.0775 13.7849C21.0775 13.6862 21.1022 13.5875 21.1515 13.4888C21.2256 13.3901 21.2626 13.2914 21.2626 13.1927C21.4353 12.8719 21.6574 12.366 21.9289 11.675C22.225 10.9593 22.5335 10.1696 22.8543 9.3059C23.1998 8.44217 23.5206 7.59078 23.8168 6.75173C24.1129 5.91267 24.3473 5.20935 24.5201 4.64176C24.7175 4.04949 24.8162 3.69166 24.8162 3.56827C24.8162 3.37084 24.8902 3.18576 25.0383 3.01301C25.1864 2.84027 25.3591 2.75389 25.5566 2.75389C25.6306 2.67986 25.8033 2.6305 26.0748 2.60583C26.3463 2.55647 26.5313 2.53179 26.63 2.53179C26.63 2.53179 26.6794 2.58115 26.7781 2.67986C26.8768 2.77857 27.0249 2.92664 27.2223 3.12406C27.4197 3.29681 27.6048 3.49423 27.7776 3.71634C27.975 3.93844 28.0737 4.19756 28.0737 4.49369C28.0737 4.81451 28.0244 5.12298 27.9256 5.41912C27.8516 5.71525 27.7035 6.12244 27.4814 6.64068C27.2593 7.13423 26.9138 7.87457 26.445 8.86169C26.2475 9.35525 26.0378 9.82413 25.8157 10.2683C25.5936 10.6879 25.4825 10.947 25.4825 11.0457C25.4825 11.1444 25.4332 11.2925 25.3345 11.4899C25.2604 11.6873 25.174 11.9341 25.0753 12.2302C24.9766 12.4277 24.8409 12.7238 24.6681 13.1186C24.4954 13.4888 24.3103 13.896 24.1129 14.3402C23.9401 14.7597 23.7921 15.1299 23.6687 15.4507C23.5453 15.7468 23.4836 15.9196 23.4836 15.9689C23.4836 16.0677 23.4713 16.1664 23.4466 16.2651C23.4466 16.3638 23.3972 16.4625 23.2985 16.5612C23.1998 16.5612 23.1381 16.6353 23.1134 16.7833C23.1134 16.9067 23.1134 16.9684 23.1134 16.9684C23.1134 17.2152 22.916 17.8692 22.5212 18.9303C22.1263 20.2876 21.7561 21.5338 21.4107 22.669C21.0898 23.8042 20.9294 24.7173 20.9294 25.4083C20.9294 26.0005 20.8307 26.4571 20.6333 26.7779C20.4606 27.0987 20.2755 27.3085 20.078 27.4072ZM25.2136 26.3707C25.0161 26.1733 24.8681 25.8772 24.7694 25.4823C24.6953 25.0875 24.6707 24.7049 24.6953 24.3348C24.72 23.9399 24.7817 23.6438 24.8804 23.4464C24.8804 23.2489 24.9051 23.1009 24.9545 23.0022C25.0285 22.8788 25.0532 22.7677 25.0285 22.669C25.0038 22.5703 25.0285 22.3976 25.1025 22.1508C25.1766 21.904 25.2506 21.6696 25.3246 21.4475C25.4974 21.0526 25.6948 20.5467 25.9169 19.9298C26.139 19.2881 26.3611 18.6465 26.5832 18.0049C26.8053 17.3386 26.9904 16.771 27.1385 16.3021C27.2865 15.8085 27.3729 15.5124 27.3976 15.4137C27.3976 15.1176 27.595 14.9572 27.9898 14.9325C28.286 14.8338 28.6438 14.9572 29.0633 15.3026C29.4829 15.6481 29.816 16.0183 30.0628 16.4132C30.2602 16.6106 30.3342 16.8697 30.2849 17.1905C30.2355 17.5113 30.0751 17.9679 29.8037 18.5601C29.705 18.7576 29.5816 19.0907 29.4335 19.5596C29.3101 20.0038 29.2237 20.374 29.1744 20.6701C29.0757 20.8675 28.9523 21.1513 28.8042 21.5215C28.6808 21.867 28.5698 22.2001 28.4711 22.5209C28.4217 22.6443 28.3723 22.8788 28.323 23.2243C28.2736 23.5451 28.2119 23.8782 28.1379 24.2237C28.0639 24.5692 27.9652 24.8407 27.8418 25.0381C27.6197 26.0499 27.2248 26.6422 26.6572 26.8149C26.1143 26.9877 25.6331 26.8396 25.2136 26.3707ZM29.2114 11.5269C28.9399 11.3295 28.7302 11.095 28.5821 10.8236C28.4587 10.5275 28.3847 10.2683 28.36 10.0462C28.36 9.82413 28.3847 9.6884 28.434 9.63905C28.6808 9.36759 28.8906 9.00976 29.0633 8.56556C29.2608 8.12135 29.4705 7.71417 29.6926 7.344C29.742 7.26996 29.8037 7.17125 29.8777 7.04786C29.9764 6.89979 30.0751 6.81342 30.1738 6.78874C30.47 6.59132 30.8772 6.60366 31.3954 6.82576C31.9383 7.04786 32.3332 7.35634 32.5799 7.75118C32.802 8.22006 32.8637 8.70128 32.765 9.19484C32.691 9.6884 32.4319 10.2066 31.9877 10.7496C31.6175 11.2431 31.1486 11.5639 30.581 11.712C30.0134 11.8354 29.5569 11.7737 29.2114 11.5269ZM35.626 26.7039C35.0831 26.7039 34.6759 26.6792 34.4045 26.6298C34.1577 26.5805 33.9726 26.5064 33.8492 26.4077C33.7258 26.309 33.5654 26.1733 33.368 26.0005C33.2693 25.8031 33.0965 25.5563 32.8498 25.2602C32.603 24.9394 32.4302 24.7296 32.3315 24.6309C32.2328 24.2607 32.1958 23.7548 32.2205 23.1132C32.2698 22.4716 32.3809 21.7806 32.5536 21.0403C32.7264 20.2999 32.9361 19.6336 33.1829 19.0414C33.2816 18.8439 33.368 18.6465 33.442 18.4491C33.5161 18.2517 33.5531 18.1529 33.5531 18.1529C33.5531 18.0296 33.7012 17.7334 33.9973 17.2645C34.3181 16.7957 34.6636 16.3021 35.0338 15.7839C35.4286 15.2656 35.7494 14.8955 35.9962 14.6734C36.1689 14.4759 36.4281 14.2662 36.7736 14.0441C37.1437 13.822 37.4645 13.6616 37.736 13.5628C38.0075 13.4641 38.3776 13.3407 38.8465 13.1927C39.3154 13.0199 39.7349 12.9336 40.1051 12.9336C40.4506 12.9336 40.8207 13.0076 41.2156 13.1557C41.6104 13.3037 41.9436 13.5628 42.2151 13.933C42.6593 14.3772 42.9431 14.9078 43.0664 15.5247C43.1898 16.1417 43.2022 16.6723 43.1035 17.1165C42.9801 17.61 42.7333 18.0172 42.3631 18.338C41.9929 18.6342 41.5981 18.7946 41.1786 18.8193C40.7591 18.8193 40.3889 18.6465 40.0681 18.301C39.9694 18.1036 39.92 17.9432 39.92 17.8198C39.92 17.6717 39.9694 17.462 40.0681 17.1905C40.1668 16.845 40.2161 16.5365 40.2161 16.2651C40.2161 15.9936 40.1051 15.8579 39.883 15.8579C39.5622 15.8579 39.3031 15.9566 39.1056 16.154C38.9082 16.3268 38.6121 16.6229 38.2172 17.0424C38.0445 17.2399 37.8224 17.5237 37.5509 17.8938C37.2795 18.264 37.008 18.6712 36.7365 19.1154C36.4898 19.5349 36.2677 19.9668 36.0702 20.411C35.7988 21.2254 35.626 21.7559 35.552 22.0027C35.5026 22.2248 35.478 22.3359 35.478 22.3359C35.478 22.4346 35.4656 22.5333 35.4409 22.632C35.4163 22.706 35.4039 22.7924 35.4039 22.8911C35.4039 23.1873 35.5767 23.4217 35.9222 23.5944C36.1936 23.7672 36.4157 23.8536 36.5885 23.8536C36.7859 23.8289 37.1561 23.6932 37.699 23.4464C38.0938 23.2489 38.464 22.9898 38.8095 22.669C39.1797 22.3482 39.5622 22.0644 39.957 21.8176C40.2285 21.6449 40.4382 21.4968 40.5863 21.3734C40.7591 21.25 40.8454 21.2377 40.8454 21.3364C40.8454 21.4351 40.8824 21.4845 40.9565 21.4845C41.0305 21.4845 41.1169 21.4351 41.2156 21.3364C41.3637 21.139 41.5487 21.0649 41.7708 21.1143C41.9929 21.139 42.1904 21.2007 42.3631 21.2994C42.5605 21.3981 42.6593 21.4845 42.6593 21.5585C42.6099 21.7806 42.6593 21.9657 42.8073 22.1138C42.8073 22.2125 42.7703 22.3482 42.6963 22.5209C42.6469 22.669 42.5729 22.7924 42.4742 22.8911C42.3508 23.0639 42.1657 23.3106 41.9189 23.6315C41.6968 23.9523 41.4871 24.2361 41.2896 24.4828C41.0922 24.7296 40.9935 24.853 40.9935 24.853C40.8948 24.8283 40.7961 24.853 40.6974 24.9271C40.6233 25.0011 40.5369 25.0875 40.4382 25.1862C40.2408 25.3589 40.0557 25.4946 39.883 25.5934C39.7102 25.6674 39.5745 25.7044 39.4758 25.7044C39.3031 25.8031 39.1673 25.8648 39.0686 25.8895C38.9946 25.9142 38.9576 25.9759 38.9576 26.0746C38.7108 26.3214 38.2666 26.4941 37.6249 26.5928C36.9833 26.6668 36.317 26.7039 35.626 26.7039ZM53.2961 27.2961C53.1974 27.1974 53.0494 27.074 52.8519 26.926C52.6545 26.7532 52.5064 26.5805 52.4077 26.4077C52.3584 26.3337 52.235 26.198 52.0376 26.0005C51.8401 25.7784 51.6427 25.5687 51.4453 25.3713C51.2479 25.1492 51.1121 25.0134 51.0381 24.9641C50.9887 24.8407 50.9024 24.7049 50.779 24.5569C50.6556 24.3841 50.5199 24.2114 50.3718 24.0386C50.2237 23.8412 50.051 23.6561 49.8536 23.4834C49.5821 23.1132 49.36 22.8294 49.1873 22.632C49.0392 22.4346 48.9158 22.3359 48.8171 22.3359C48.8171 22.3359 48.743 22.5703 48.595 23.0392C48.4469 23.4834 48.2865 24.0016 48.1138 24.5939C47.941 25.1615 47.7929 25.6304 47.6696 26.0005C47.5708 26.1733 47.4721 26.309 47.3734 26.4077C47.2747 26.5064 47.176 26.5805 47.0773 26.6298C47.0033 26.6792 46.9169 26.7162 46.8182 26.7409C46.7195 26.7409 46.6207 26.7409 46.522 26.7409C46.2506 26.7409 45.9051 26.6175 45.4856 26.3707C45.066 26.1239 44.8563 25.7661 44.8563 25.2972C44.7576 24.9517 44.8809 24.1991 45.2264 23.0392C45.5719 21.8793 46.1025 20.3986 46.8182 18.5972C46.9169 18.227 47.0403 17.8445 47.1883 17.4496C47.3364 17.0301 47.4598 16.6846 47.5585 16.4132C47.9287 15.2039 48.3359 14.0934 48.7801 13.0816C49.2243 12.0452 49.7178 10.8976 50.2607 9.63905C50.4828 9.19485 50.6433 8.87403 50.742 8.67661C50.8407 8.45451 50.9517 8.2324 51.0751 8.0103C51.1985 7.76352 51.3836 7.40569 51.6304 6.93681C52.1733 5.92501 52.6052 5.13532 52.926 4.56773C53.2468 4.00013 53.4936 3.58061 53.6663 3.30915C53.839 3.03769 53.9871 2.84027 54.1105 2.71688C54.2339 2.59349 54.4313 2.50712 54.7028 2.45776C54.9742 2.4084 55.2457 2.4084 55.5172 2.45776C55.8133 2.48244 56.023 2.56881 56.1464 2.71688C56.3439 2.9143 56.4919 3.11173 56.5906 3.30915C56.6894 3.4819 56.6894 3.72868 56.5906 4.04949C56.5166 4.34562 56.2945 4.80217 55.9243 5.41912C55.7269 5.86332 55.5665 6.18413 55.4431 6.38156C55.3197 6.57898 55.1963 6.7764 55.0729 6.97383C54.9496 7.17125 54.7521 7.51674 54.4807 8.0103C54.456 8.10902 54.4066 8.22007 54.3326 8.34346C54.2833 8.44217 54.2216 8.54088 54.1475 8.63959C54.0735 8.71362 53.9995 8.75064 53.9254 8.75064C53.9254 8.82468 53.8884 8.97274 53.8144 9.19484C53.7403 9.41695 53.654 9.62671 53.5553 9.82413C53.4812 10.0956 53.3578 10.3917 53.1851 10.7125C53.037 11.0087 52.926 11.2555 52.8519 11.4529C52.6545 11.9218 52.383 12.4894 52.0376 13.1557C51.7167 13.7973 51.5193 14.3155 51.4453 14.7104C51.4453 14.7597 51.4823 14.7721 51.5563 14.7474C51.6304 14.698 51.7167 14.6363 51.8155 14.5623C51.9388 14.4636 52.0499 14.3896 52.1486 14.3402C52.7162 13.896 53.3208 13.4765 53.9624 13.0816C54.6287 12.6868 55.184 12.4523 55.6282 12.3783C55.875 12.3043 56.0971 12.2673 56.2945 12.2673C56.4919 12.2426 56.677 12.2426 56.8498 12.2673C57.0225 12.2919 57.1953 12.3413 57.368 12.4153C57.6395 12.5881 57.8862 12.9089 58.1083 13.3778C58.3304 13.8466 58.4908 14.3155 58.5896 14.7844C58.5896 15.0065 58.4785 15.4137 58.2564 16.006C58.059 16.5736 57.8122 17.1412 57.5161 17.7087C57.2446 18.2517 56.9855 18.6218 56.7387 18.8193C56.6153 18.8686 56.5043 18.918 56.4056 18.9673C56.3315 19.0167 56.2698 19.066 56.2205 19.1154C56.1958 19.1401 56.1835 19.1524 56.1835 19.1524C56.1835 19.2511 56.1341 19.3745 56.0354 19.5226C55.9614 19.6706 55.8256 19.794 55.6282 19.8927C55.5295 19.9915 55.4184 20.1148 55.295 20.2629C55.1717 20.411 55.11 20.522 55.11 20.5961C55.11 20.5961 55.11 20.6331 55.11 20.7071C55.11 20.7565 55.11 20.7812 55.11 20.7812C55.0113 20.7812 54.9249 20.7935 54.8508 20.8182C54.8015 20.8182 54.6411 20.9169 54.3696 21.1143C54.0982 21.3858 53.9007 21.5338 53.7774 21.5585C53.6786 21.5832 53.5306 21.6325 53.3332 21.7066C53.2344 21.8053 53.111 21.867 52.963 21.8917C52.8396 21.9163 52.7779 21.978 52.7779 22.0767C52.7779 22.1755 52.8766 22.3605 53.074 22.632C53.2715 22.9035 53.5059 23.1996 53.7774 23.5204C54.0735 23.8412 54.3573 24.1374 54.6287 24.4088C54.9002 24.6803 55.11 24.8654 55.258 24.9641C55.4308 25.0381 55.5542 25.1738 55.6282 25.3713C55.7022 25.5687 55.7393 25.7784 55.7393 26.0005C55.7639 26.2226 55.7516 26.4324 55.7022 26.6298C55.6776 26.8273 55.6405 26.9753 55.5912 27.074C55.5418 27.1234 55.3691 27.1851 55.0729 27.2591C54.8015 27.3578 54.493 27.4195 54.1475 27.4442C53.8267 27.4689 53.5429 27.4195 53.2961 27.2961ZM51.1491 20.2259C51.2725 20.1272 51.4946 19.9421 51.8155 19.6706C52.1609 19.3992 52.5311 19.103 52.926 18.7822C53.3208 18.4367 53.6786 18.1036 53.9995 17.7828C54.3449 17.462 54.5917 17.2152 54.7398 17.0424C54.9125 16.8697 55.0976 16.5859 55.295 16.191C55.4925 15.7962 55.5295 15.4754 55.4061 15.2286C55.3814 15.1299 55.1963 15.1916 54.8508 15.4137C54.5054 15.6358 54.0612 15.8826 53.5182 16.154C53.0987 16.4008 52.6298 16.6846 52.1116 17.0054C51.618 17.3016 51.1492 17.6347 50.7049 18.0049C50.2607 18.3504 49.9153 18.7329 49.6685 19.1524C49.6191 19.3252 49.6685 19.5226 49.8165 19.7447C49.9646 19.9668 50.162 20.1395 50.4088 20.2629C50.6556 20.3616 50.9024 20.3493 51.1491 20.2259ZM72.0345 26.7039C71.5163 26.8026 71.1214 26.7779 70.85 26.6298C70.6032 26.4571 70.3441 26.2473 70.0726 26.0005C69.6778 25.8031 69.3199 25.5317 68.9991 25.1862C68.6783 24.816 68.4315 24.4335 68.2588 24.0386C68.086 23.6438 68.012 23.3353 68.0367 23.1132C68.1107 22.2495 68.3081 21.3117 68.629 20.2999C68.9745 19.2881 69.4063 18.301 69.9246 17.3386C70.4675 16.3761 71.0721 15.5247 71.7384 14.7844C72.4294 14.0194 73.1697 13.4641 73.9594 13.1186C74.453 12.9212 74.9835 12.8472 75.5511 12.8965C76.1187 12.9459 76.5012 13.1803 76.6987 13.5999C77.0688 14.3155 76.9825 14.7721 76.4395 14.9695C76.3655 14.9695 76.2791 15.0065 76.1804 15.0805C76.0817 15.1299 76.0324 15.2039 76.0324 15.3026C76.1311 15.352 76.4025 15.3643 76.8467 15.3397C77.2909 15.2903 77.7351 15.2163 78.1793 15.1176C78.6482 14.9942 78.9567 14.8708 79.1048 14.7474C79.2528 14.6734 79.3639 14.6363 79.4379 14.6363C79.5119 14.6363 79.697 14.661 79.9932 14.7104C80.4127 14.8338 80.6225 14.9818 80.6225 15.1546C80.6225 15.2533 80.6595 15.4137 80.7335 15.6358C80.8075 15.8332 80.8939 15.9319 80.9926 15.9319C81.1654 15.9566 81.2024 16.1294 81.1037 16.4502C81.0296 16.771 80.7458 17.1041 80.2523 17.4496C79.7834 17.7458 79.4873 17.9432 79.3639 18.0419C79.2652 18.1159 79.2528 18.2887 79.3269 18.5601C79.5243 19.029 79.5119 19.5966 79.2898 20.2629C79.0677 20.9292 78.6976 21.6202 78.1793 22.3359C77.6611 23.0515 77.0441 23.7302 76.3285 24.3718C75.6375 24.9887 74.9095 25.5193 74.1445 25.9635C73.4041 26.3831 72.7008 26.6298 72.0345 26.7039ZM72.1456 23.5944C72.2443 23.5944 72.417 23.5451 72.6638 23.4464C72.9106 23.323 73.108 23.2243 73.2561 23.1502C73.3548 23.0515 73.4782 22.9405 73.6263 22.8171C73.799 22.669 73.9347 22.5826 74.0334 22.558C74.1321 22.558 74.1938 22.5209 74.2185 22.4469C74.2432 22.3482 74.3296 22.1631 74.4776 21.8917C74.6257 21.5955 74.9218 21.1637 75.366 20.5961C75.8596 20.0532 76.1804 19.6213 76.3285 19.3005C76.4766 18.955 76.4889 18.5848 76.3655 18.19C76.3408 18.0913 76.2668 18.0296 76.1434 18.0049C76.0447 17.9802 75.909 17.9185 75.7362 17.8198C75.4894 17.8198 75.3167 17.8815 75.218 18.0049C75.1439 18.1036 74.9712 18.0419 74.6997 17.8198L74.1075 17.0795L73.4782 17.7087C73.0833 18.1036 72.7255 18.5972 72.4047 19.1894C72.1086 19.7817 71.8741 20.3863 71.7014 21.0033C71.5286 21.6202 71.4176 22.1631 71.3682 22.632C71.3435 23.0022 71.4052 23.2489 71.5533 23.3723C71.7014 23.4957 71.8988 23.5698 72.1456 23.5944ZM82.6326 26.0005C82.4105 25.8278 82.1638 25.6057 81.8923 25.3342C81.6455 25.0628 81.5592 24.6803 81.6332 24.1867C81.7072 23.4957 81.8059 22.8911 81.9293 22.3729C82.0527 21.83 82.2008 21.213 82.3735 20.522C82.4229 20.2259 82.5463 19.72 82.7437 19.0043C82.9658 18.2887 83.2249 17.5113 83.5211 16.6723C83.8172 15.8332 84.1257 15.0435 84.4465 14.3032C84.7673 13.5382 85.0511 12.9706 85.2979 12.6004C85.5693 12.3536 85.9642 12.2302 86.4824 12.2302C87.0253 12.2302 87.3955 12.3289 87.5929 12.5264C87.8644 12.7485 87.9508 13.1433 87.852 13.7109C87.7533 14.2538 87.4078 15.1052 86.8156 16.2651C86.6922 16.5612 86.5318 16.882 86.3343 17.2275C86.1616 17.5483 86.0382 17.8198 85.9642 18.0419C85.8901 18.2393 85.9148 18.3257 86.0382 18.301C86.1863 18.0296 86.4577 17.7211 86.8526 17.3756C87.2474 17.0054 87.667 16.6476 88.1112 16.3021C88.5554 15.9566 88.9749 15.6481 89.3697 15.3767C89.7646 15.1052 90.036 14.9325 90.1841 14.8584C90.3815 14.735 90.6036 14.6363 90.8504 14.5623C91.1219 14.4636 91.307 14.3896 91.4057 14.3402C91.9733 14.0687 92.5902 13.97 93.2565 14.0441C93.9475 14.0934 94.367 14.3032 94.5151 14.6734C94.5398 14.8708 94.6138 15.0188 94.7372 15.1176C94.8853 15.2163 94.9593 15.2656 94.9593 15.2656C95.058 15.2656 95.1074 15.3026 95.1074 15.3767C95.132 15.4507 95.1444 15.4877 95.1444 15.4877C95.1444 15.6605 94.9716 15.9073 94.6261 16.2281C94.3053 16.5489 93.9475 16.7216 93.5527 16.7463C93.2318 16.771 92.948 16.8327 92.7013 16.9314C92.4545 17.0301 92.1583 17.1535 91.8129 17.3016C90.8751 17.8445 90.0237 18.3257 89.2587 18.7452C88.5183 19.1647 87.7533 19.8064 86.9636 20.6701C86.7909 20.8675 86.6058 21.0526 86.4084 21.2254C86.211 21.3981 86.0135 21.6449 85.8161 21.9657C85.6927 22.0891 85.5693 22.3605 85.4459 22.7801C85.3225 23.1996 85.2115 23.6068 85.1128 24.0016C85.0388 24.3718 85.0017 24.5939 85.0017 24.6679C85.0017 24.6679 84.9647 24.7913 84.8907 25.0381C84.8166 25.2602 84.6933 25.4823 84.5205 25.7044C84.2244 26.0993 83.9282 26.346 83.6321 26.4447C83.3606 26.5435 83.0275 26.3954 82.6326 26.0005ZM103.9 33.8481C103.555 33.9468 103.197 33.8605 102.827 33.589C102.481 33.3176 102.21 32.9474 102.012 32.4785C101.84 32.0096 101.84 31.5284 102.012 31.0348C102.062 30.8868 102.136 30.64 102.235 30.2945C102.333 29.9737 102.395 29.6899 102.42 29.4431C102.444 29.2704 102.518 28.9742 102.642 28.5547C102.765 28.1599 102.901 27.765 103.049 27.3702C103.222 26.9753 103.357 26.6915 103.456 26.5188C103.604 26.272 103.703 25.9882 103.752 25.6674C103.826 25.3466 103.863 25.0998 103.863 24.9271C103.913 24.7543 103.974 24.5569 104.048 24.3348C104.147 24.1127 104.246 23.9399 104.345 23.8165C104.394 23.6191 104.468 23.4094 104.567 23.1873C104.665 22.9405 104.776 22.7307 104.9 22.558C104.949 22.3852 104.986 22.1755 105.011 21.9287C105.06 21.6819 105.134 21.5462 105.233 21.5215C105.258 21.4228 105.27 21.3241 105.27 21.2254C105.295 21.1266 105.344 20.9909 105.418 20.8182C105.467 20.5467 105.578 20.1519 105.751 19.6336C105.924 19.1154 106.134 18.5478 106.38 17.9308C106.652 17.2152 106.837 16.5982 106.936 16.08C107.034 15.5371 106.899 15.1916 106.529 15.0435C106.331 14.9448 106.208 14.7227 106.158 14.3772C106.109 14.007 106.134 13.6369 106.232 13.2667C106.331 12.8965 106.479 12.6744 106.677 12.6004C106.899 12.5017 107.17 12.44 107.491 12.4153C107.812 12.3906 108.096 12.3906 108.342 12.4153C108.614 12.4153 108.737 12.44 108.713 12.4894C108.713 12.6127 108.774 12.6868 108.898 12.7115C108.947 12.6374 109.046 12.7485 109.194 13.0446C109.367 13.3161 109.527 13.6245 109.675 13.97C109.823 14.3155 109.897 14.55 109.897 14.6734C109.848 14.7721 109.823 14.8338 109.823 14.8584C109.823 14.8584 109.872 14.8584 109.971 14.8584C109.971 14.8584 110.107 14.7967 110.378 14.6734C110.65 14.5253 110.934 14.3649 111.23 14.1921C111.551 13.9947 111.76 13.8466 111.859 13.7479C111.859 13.7479 111.921 13.7233 112.044 13.6739C112.192 13.5999 112.316 13.5135 112.414 13.4148C112.908 13.2174 113.438 13.1803 114.006 13.3037C114.598 13.4271 115.067 13.6492 115.413 13.97C115.906 14.587 116.276 15.352 116.523 16.2651C116.795 17.1782 116.758 18.0666 116.412 18.9303C116.363 19.0537 116.252 19.2635 116.079 19.5596C115.931 19.831 115.783 20.0902 115.635 20.3369C115.487 20.5591 115.413 20.6701 115.413 20.6701C114.845 21.5585 114.216 22.2988 113.525 22.8911C112.858 23.4834 112.13 24.0016 111.341 24.4458C111.094 24.6186 110.748 24.779 110.304 24.9271C109.885 25.0751 109.49 25.1862 109.12 25.2602C108.774 25.3342 108.564 25.3466 108.49 25.2972C108.219 25.0998 107.972 24.6803 107.75 24.0386C107.627 24.3595 107.503 24.6803 107.38 25.0011C107.281 25.2972 107.22 25.4946 107.195 25.5934C107.17 25.7661 107.145 25.9142 107.121 26.0376C107.096 26.1363 107.034 26.2226 106.936 26.2967C106.936 26.2967 106.923 26.346 106.899 26.4447C106.874 26.5435 106.788 26.6915 106.64 26.8889C106.393 27.6046 106.195 28.1599 106.047 28.5547C105.899 28.9742 105.776 29.3074 105.677 29.5542C105.603 29.8256 105.529 30.1094 105.455 30.4056C105.406 31.0719 105.245 31.7752 104.974 32.5155C104.727 33.2559 104.369 33.7001 103.9 33.8481ZM109.416 21.8176C109.515 21.7683 109.687 21.6819 109.934 21.5585C110.206 21.4351 110.502 21.287 110.823 21.1143C111.143 20.9169 111.439 20.7318 111.711 20.559C112.007 20.3616 112.217 20.1889 112.34 20.0408C112.538 19.8187 112.649 19.646 112.673 19.5226C112.698 19.3745 112.76 19.1401 112.858 18.8193C112.932 18.6218 113.019 18.3997 113.118 18.1529C113.216 17.9062 113.303 17.6717 113.377 17.4496C113.475 17.2522 113.512 17.0548 113.488 16.8574C113.488 16.6353 113.414 16.4502 113.266 16.3021C113.167 16.2774 112.932 16.3144 112.562 16.4132C112.217 16.5119 111.81 16.7093 111.341 17.0054C110.897 17.3016 110.452 17.7334 110.008 18.301C109.49 18.9673 109.144 19.5719 108.972 20.1148C108.799 20.6331 108.762 21.0526 108.861 21.3734C108.959 21.6696 109.144 21.8176 109.416 21.8176ZM119.334 26.4447C119.161 26.4447 118.927 26.3214 118.63 26.0746C118.359 25.8278 118.199 25.6057 118.149 25.4083C118.075 25.2108 118.075 24.9271 118.149 24.5569C118.248 24.162 118.384 23.7055 118.556 23.1873C118.754 22.3729 118.89 21.7806 118.964 21.4104C119.038 21.0403 119.112 20.7195 119.186 20.448C119.26 20.1765 119.358 19.7817 119.482 19.2635C119.63 18.9426 119.741 18.6342 119.815 18.338C119.914 18.0172 120.012 17.6964 120.111 17.3756C120.235 17.0548 120.37 16.734 120.518 16.4132C120.691 15.7715 120.901 15.1669 121.148 14.5993C121.419 14.007 121.678 13.5135 121.925 13.1186C121.974 13.0446 122.085 12.9089 122.258 12.7115C122.431 12.514 122.567 12.4153 122.665 12.4153C122.863 12.2179 123.134 12.1562 123.48 12.2302C123.825 12.2796 124.121 12.403 124.368 12.6004C124.664 12.9212 124.825 13.3037 124.849 13.7479C124.899 14.1675 124.726 14.7597 124.331 15.5247C124.035 16.2898 123.751 16.8944 123.48 17.3386C123.233 17.7581 122.986 18.2517 122.739 18.8193C123.011 18.4244 123.344 18.0172 123.739 17.5977C124.134 17.1782 124.442 16.845 124.664 16.5982C124.985 16.2527 125.281 15.9813 125.553 15.7839C125.849 15.5618 126.244 15.2903 126.737 14.9695C127.157 14.6734 127.576 14.4019 127.996 14.1551C128.44 13.9083 128.971 13.8343 129.587 13.933C129.834 13.9083 130.093 14.0317 130.365 14.3032C130.661 14.5746 130.883 14.9325 131.031 15.3767C131.204 15.7962 131.204 16.2527 131.031 16.7463C130.464 16.6229 129.958 16.6476 129.513 16.8203C129.069 16.9684 128.687 17.1535 128.366 17.3756C128.07 17.5977 127.835 17.7704 127.663 17.8938C127.416 18.0419 127.132 18.2393 126.811 18.4861C126.49 18.7082 126.145 18.9673 125.775 19.2635C125.405 19.5349 125.01 19.8434 124.59 20.1889C123.998 20.6824 123.554 21.1143 123.258 21.4845C122.961 21.8546 122.727 22.2495 122.554 22.669C122.406 23.0392 122.221 23.4834 121.999 24.0016C121.777 24.5199 121.567 24.9887 121.37 25.4083C121.172 25.8031 121.012 26.0499 120.889 26.1486C120.765 26.3954 120.506 26.5311 120.111 26.5558C119.741 26.5805 119.482 26.5435 119.334 26.4447ZM134.043 26.6668C133.08 26.272 132.414 25.6304 132.044 24.742C131.673 23.8536 131.575 22.669 131.747 21.1883C131.797 20.4233 131.772 19.9174 131.673 19.6706C131.575 19.3992 131.39 19.1401 131.118 18.8933C131.044 18.7946 130.871 18.6342 130.6 18.4121C130.329 18.1653 130.205 17.9802 130.23 17.8568C130.205 17.6841 130.242 17.4743 130.341 17.2275C130.44 16.9561 130.526 16.808 130.6 16.7833C130.773 16.7093 130.945 16.6229 131.118 16.5242C131.316 16.4255 131.464 16.4008 131.562 16.4502C131.661 16.4502 131.809 16.5119 132.007 16.6353C132.229 16.7586 132.34 16.8697 132.34 16.9684C132.438 17.1412 132.587 17.0671 132.784 16.7463C133.006 16.4255 133.241 16.0183 133.487 15.5247C133.734 15.1299 134.043 14.7597 134.413 14.4142C134.783 14.0687 135.153 13.7603 135.523 13.4888C135.918 13.1927 136.251 12.9706 136.523 12.8225C136.646 12.7732 136.881 12.6991 137.226 12.6004C137.596 12.5017 137.979 12.4277 138.374 12.3783C138.768 12.3043 139.065 12.2796 139.262 12.3043C139.706 12.3289 140.175 12.514 140.669 12.8595C141.162 13.205 141.545 13.5258 141.816 13.822C142.137 14.0441 142.347 14.3896 142.445 14.8584C142.569 15.3026 142.618 15.7715 142.593 16.2651C142.569 16.7586 142.47 17.1782 142.297 17.5237C142.223 17.7704 141.964 18.1159 141.52 18.5601C141.076 19.0043 140.582 19.4362 140.039 19.8557C139.521 20.2506 139.077 20.522 138.707 20.6701C138.386 20.7441 138.003 20.8058 137.559 20.8552C137.115 20.8799 136.695 20.8799 136.301 20.8552C135.93 20.8058 135.671 20.7441 135.523 20.6701C135.35 20.5714 135.202 20.6084 135.079 20.7812C134.98 20.9292 134.894 21.3487 134.82 22.0397C134.795 22.3112 134.795 22.5456 134.82 22.7431C134.869 22.9405 134.919 23.0885 134.968 23.1873C135.141 23.4834 135.313 23.7055 135.486 23.8536C135.659 23.9769 135.98 24.014 136.449 23.9646C136.918 23.9153 137.386 23.6315 137.855 23.1132C138.349 22.5703 138.793 22.1384 139.188 21.8176C139.287 21.6449 139.496 21.5338 139.817 21.4845C140.163 21.4104 140.57 21.4351 141.039 21.5585C141.31 21.7313 141.434 22.0027 141.409 22.3729C141.409 22.7431 141.211 23.286 140.817 24.0016C140.743 24.1744 140.533 24.4335 140.187 24.779C139.867 25.0998 139.509 25.4329 139.114 25.7784C138.744 26.0993 138.435 26.3337 138.188 26.4818C137.448 26.8766 136.72 27.0617 136.004 27.037C135.289 27.0123 134.635 26.8889 134.043 26.6668ZM136.782 18.338C137.152 18.2393 137.46 18.1406 137.707 18.0419C137.979 17.9432 138.238 17.7828 138.485 17.5607C138.731 17.3386 139.015 17.0054 139.336 16.5612C139.435 16.2898 139.484 16.0553 139.484 15.8579C139.509 15.6605 139.496 15.5371 139.447 15.4877C139.25 15.2903 139.027 15.2286 138.781 15.3026C138.559 15.352 138.312 15.4754 138.04 15.6728C137.868 15.7468 137.621 15.9073 137.3 16.154C137.004 16.3761 136.708 16.6353 136.412 16.9314C136.14 17.2028 135.918 17.462 135.745 17.7087C135.597 17.9308 135.573 18.0666 135.671 18.1159C135.622 18.2146 135.758 18.2763 136.078 18.301C136.424 18.3257 136.658 18.338 136.782 18.338ZM145.887 27.2221C145.048 26.8766 144.431 26.5188 144.037 26.1486C143.666 25.7538 143.518 25.4083 143.592 25.1121C143.642 24.9641 143.728 24.8283 143.851 24.7049C143.975 24.5816 144.246 24.5322 144.666 24.5569C145.11 24.5569 145.789 24.6679 146.702 24.89C146.973 24.89 147.245 24.8777 147.516 24.853C147.788 24.8283 148.034 24.7913 148.256 24.742C148.503 24.6926 148.701 24.6309 148.849 24.5569C148.972 24.5075 149.009 24.4458 148.96 24.3718C148.91 24.2731 148.824 24.1744 148.701 24.0757C148.602 23.9523 148.491 23.8782 148.368 23.8536C148.244 23.8042 148.133 23.7795 148.034 23.7795C147.985 23.6561 147.874 23.5327 147.701 23.4094C147.553 23.286 147.368 23.1502 147.146 23.0022C146.603 22.558 146.109 22.1631 145.665 21.8176C145.221 21.4721 145.048 21.213 145.147 21.0403C145.147 20.9416 145.147 20.8922 145.147 20.8922C145.147 20.8675 145.147 20.8552 145.147 20.8552C144.974 20.8552 144.814 20.6207 144.666 20.1519C144.518 19.6583 144.444 19.2141 144.444 18.8193C144.444 18.3257 144.542 17.8321 144.74 17.3386C144.962 16.845 145.233 16.3761 145.554 15.9319C145.9 15.4877 146.245 15.0929 146.591 14.7474C147.06 14.3032 147.553 13.8713 148.071 13.4518C148.614 13.0076 149.194 12.6127 149.811 12.2673C150.453 11.9218 151.156 11.6503 151.921 11.4529C152.267 11.3788 152.661 11.3418 153.106 11.3418C153.55 11.3418 153.871 11.4035 154.068 11.5269C154.266 11.4035 154.512 11.4405 154.808 11.638C155.105 11.8107 155.401 12.0575 155.697 12.3783C155.993 12.6991 156.215 13.0199 156.363 13.3407C156.363 13.6369 156.351 14.007 156.326 14.4513C156.326 14.8708 156.301 15.2409 156.252 15.5618C156.203 15.8826 156.092 16.043 155.919 16.043C155.919 16.043 155.882 16.0553 155.808 16.08C155.759 16.08 155.734 16.1417 155.734 16.2651C155.734 16.5119 155.549 16.7957 155.179 17.1165C154.71 17.4373 154.266 17.6964 153.846 17.8938C153.427 18.0913 153.106 18.1036 152.884 17.9308C152.736 17.8321 152.6 17.7334 152.476 17.6347C152.353 17.536 152.242 17.4126 152.143 17.2645C152.143 17.2645 152.106 17.2152 152.032 17.1165C151.983 16.9931 151.958 16.882 151.958 16.7833C151.958 16.6846 151.995 16.5982 152.069 16.5242C152.143 16.4255 152.18 16.3761 152.18 16.3761C152.526 16.0553 152.785 15.7592 152.958 15.4877C153.155 15.2163 153.291 14.9818 153.365 14.7844C153.439 14.5623 153.476 14.3896 153.476 14.2662C153.476 14.1181 153.439 14.0317 153.365 14.007C153.315 13.9577 153.192 13.933 152.995 13.933C152.871 13.933 152.6 14.0317 152.18 14.2292C151.785 14.4266 151.366 14.6734 150.922 14.9695C150.477 15.2409 150.132 15.4877 149.885 15.7098C149.787 15.8826 149.712 15.9936 149.663 16.043C149.638 16.0923 149.577 16.117 149.478 16.117C149.478 16.0183 149.416 16.0306 149.293 16.154C149.17 16.2774 149.021 16.4502 148.849 16.6723C148.676 16.8944 148.503 17.1288 148.331 17.3756C148.158 17.6224 148.022 17.8198 147.923 17.9679C147.899 18.19 147.837 18.3997 147.738 18.5972C147.664 18.7699 147.64 18.955 147.664 19.1524C147.689 19.3992 147.812 19.6336 148.034 19.8557C148.256 20.0778 148.577 20.3616 148.997 20.7071C149.861 21.3487 150.502 21.8546 150.922 22.2248C151.366 22.595 151.674 22.8911 151.847 23.1132C152.02 23.3353 152.131 23.5574 152.18 23.7795C152.6 24.5445 152.649 25.2108 152.328 25.7784C152.008 26.3214 151.514 26.7409 150.848 27.037C150.601 27.1604 150.169 27.2715 149.552 27.3702C148.935 27.4936 148.281 27.5429 147.59 27.5182C146.924 27.5182 146.356 27.4195 145.887 27.2221ZM160.347 27.2221C159.557 27.2221 158.829 27.0494 158.163 26.7039C157.521 26.3337 157.003 25.8895 156.608 25.3713C156.213 24.8283 156.016 24.3101 156.016 23.8165C156.016 23.5944 156.053 23.434 156.127 23.3353C156.225 23.2366 156.361 23.1873 156.534 23.1873C156.657 23.2119 156.805 23.2736 156.978 23.3723C157.151 23.4711 157.324 23.5821 157.496 23.7055C157.891 23.9769 158.323 24.1497 158.792 24.2237C159.261 24.2978 159.68 24.2731 160.05 24.1497C160.421 24.0016 160.63 23.7795 160.68 23.4834C160.68 23.3847 160.63 23.1749 160.532 22.8541C160.433 22.5333 160.31 22.2248 160.161 21.9287C159.545 21.0156 159.162 20.1519 159.014 19.3375C158.866 18.4984 158.767 17.6594 158.718 16.8203C158.718 16.4748 158.878 16.0923 159.199 15.6728C159.52 15.2286 159.915 14.7967 160.384 14.3772C160.902 13.933 161.469 13.5135 162.086 13.1186C162.728 12.7238 163.357 12.3906 163.974 12.1192C164.591 11.8477 165.109 11.6873 165.529 11.638C165.973 11.638 166.442 11.6626 166.936 11.712C167.454 11.7367 167.799 11.823 167.972 11.9711C168.318 12.2426 168.638 12.6868 168.934 13.3037C169.231 13.9207 169.379 14.4389 169.379 14.8584C169.379 15.0559 169.268 15.3026 169.046 15.5988C168.848 15.8702 168.663 16.1787 168.49 16.5242C168.392 16.6969 168.305 16.882 168.231 17.0795C168.157 17.2769 168.071 17.4743 167.972 17.6717C167.824 18.0172 167.553 18.1653 167.158 18.1159C166.788 18.0419 166.442 17.8445 166.121 17.5237C165.8 17.1782 165.64 16.7833 165.64 16.3391C165.64 15.9689 165.751 15.6481 165.973 15.3767C166.195 15.1052 166.306 14.9201 166.306 14.8214C166.306 14.7721 166.282 14.735 166.232 14.7104C166.183 14.6857 166.097 14.6734 165.973 14.6734C165.8 14.6734 165.517 14.7474 165.122 14.8955C164.752 15.0188 164.357 15.2039 163.937 15.4507C163.518 15.6975 163.135 15.9936 162.79 16.3391C162.543 16.6106 162.333 16.9067 162.16 17.2275C162.012 17.5237 161.938 17.8445 161.938 18.19C161.938 18.5355 162 18.9426 162.123 19.4115C162.271 19.8557 162.432 20.2259 162.605 20.522C162.654 20.5714 162.728 20.7071 162.827 20.9292C162.95 21.1266 163.086 21.3734 163.234 21.6696C164.147 23.5451 164.295 24.9394 163.678 25.8525C163.086 26.7656 161.975 27.2221 160.347 27.2221ZM188.805 10.7125C188.41 10.4411 188.077 10.0586 187.806 9.56501C187.534 9.07146 187.448 8.66427 187.547 8.34346C187.621 7.77586 187.744 7.24529 187.917 6.75173C188.114 6.25817 188.287 5.77695 188.435 5.30806C188.583 4.74047 188.879 4.16054 189.323 3.56827C189.792 2.95132 190.236 2.4084 190.656 1.93952C190.631 1.84081 190.705 1.77911 190.878 1.75444C191.051 1.72976 191.273 1.66806 191.544 1.56935C191.816 1.54467 192.124 1.54467 192.47 1.56935C192.815 1.56935 193.037 1.80379 193.136 2.27267C193.185 2.44542 193.161 2.60583 193.062 2.75389C192.988 2.87728 192.889 3.03769 192.766 3.23512C192.47 3.704 192.124 4.23457 191.729 4.82684C191.359 5.41912 191.112 5.90034 190.989 6.27051C190.989 6.36922 190.977 6.45559 190.952 6.52962C191.372 6.45559 191.803 6.60366 192.248 6.97383C192.717 7.41803 192.84 8.0103 192.618 8.75064C192.396 9.49098 191.964 10.0833 191.322 10.5275C190.878 10.7989 190.459 10.947 190.064 10.9717C189.669 10.9717 189.249 10.8853 188.805 10.7125ZM182.216 10.7125C181.821 10.4411 181.488 10.0586 181.217 9.56501C180.945 9.07146 180.859 8.66427 180.957 8.34346C181.032 7.77586 181.155 7.24529 181.328 6.75173C181.525 6.25817 181.698 5.77695 181.846 5.30806C181.994 4.74047 182.29 4.16054 182.734 3.56827C183.203 2.95132 183.647 2.4084 184.067 1.93952C184.042 1.84081 184.116 1.77911 184.289 1.75444C184.462 1.72976 184.684 1.66806 184.955 1.56935C185.227 1.54467 185.535 1.54467 185.881 1.56935C186.226 1.56935 186.436 1.80379 186.51 2.27267C186.559 2.44542 186.535 2.60583 186.436 2.75389C186.362 2.87728 186.263 3.03769 186.14 3.23512C185.844 3.704 185.498 4.23457 185.103 4.82684C184.733 5.41912 184.486 5.90034 184.363 6.27051C184.363 6.36922 184.351 6.45559 184.326 6.52962C184.746 6.45559 185.177 6.60366 185.622 6.97383C186.091 7.41803 186.214 8.0103 185.992 8.75064C185.794 9.49098 185.375 10.0833 184.733 10.5275C184.289 10.7989 183.869 10.947 183.475 10.9717C183.08 10.9717 182.66 10.8853 182.216 10.7125ZM192.122 29.258C191.135 29.0113 190.333 28.493 189.716 27.7033C189.123 26.9383 188.642 26.0129 188.272 24.9271C188.247 24.6062 188.235 24.162 188.235 23.5944C188.26 23.0268 188.297 22.4963 188.346 22.0027C188.395 21.5092 188.445 21.2254 188.494 21.1513C188.568 21.102 188.605 20.9539 188.605 20.7071C188.581 20.6084 188.593 20.448 188.642 20.2259C188.716 19.9791 188.79 19.7323 188.864 19.4856C188.988 19.1894 189.049 18.955 189.049 18.7822C189.049 18.5848 189.037 18.4367 189.012 18.338C189.012 18.338 189.049 18.264 189.123 18.1159C189.198 17.9432 189.284 17.8075 189.383 17.7087C189.531 17.5607 189.592 17.4126 189.568 17.2645C189.568 17.1165 189.568 17.0424 189.568 17.0424C189.543 16.9437 189.568 16.808 189.642 16.6353C189.716 16.4625 189.79 16.3268 189.864 16.2281C189.913 16.1787 189.975 16.08 190.049 15.9319C190.148 15.7592 190.197 15.6728 190.197 15.6728C190.197 15.5988 190.246 15.4014 190.345 15.0805C190.468 14.7597 190.604 14.4142 190.752 14.0441C190.9 13.6492 191.036 13.2914 191.159 12.9706C191.307 12.6498 191.419 12.44 191.493 12.3413V12.2673C191.591 12.0205 191.727 11.7614 191.9 11.4899C191.924 11.3665 191.986 11.1691 192.085 10.8976C192.184 10.6015 192.295 10.3177 192.418 10.0462C192.689 9.45396 193.023 8.78766 193.417 8.04732C193.837 7.2823 194.281 6.52962 194.75 5.78929C195.219 5.02427 195.663 4.34562 196.083 3.75335C196.527 3.1364 196.909 2.67986 197.23 2.38373C197.65 1.91484 198.069 1.58169 198.489 1.38427C198.933 1.16217 199.34 1.2362 199.71 1.60637C199.883 1.77912 200.031 2.03823 200.155 2.38373C200.278 2.70454 200.327 3.01301 200.303 3.30915C200.303 3.58061 200.204 3.72868 200.006 3.75335C199.834 3.85207 199.599 4.13586 199.303 4.60474C199.007 5.04895 198.674 5.57952 198.304 6.19647C197.958 6.81342 197.613 7.45505 197.267 8.12135C196.922 8.76298 196.601 9.34291 196.305 9.86115C195.984 10.5768 195.688 11.2061 195.416 11.749C195.145 12.2673 195.009 12.5264 195.009 12.5264C194.985 12.6004 194.96 12.6621 194.935 12.7115C194.91 12.7608 194.886 12.8102 194.861 12.8595C194.491 13.6245 194.182 14.3279 193.936 14.9695C193.689 15.5864 193.442 16.2404 193.195 16.9314C193.047 17.1041 192.961 17.2769 192.936 17.4496C192.912 17.6224 192.899 17.7087 192.899 17.7087C192.85 17.6841 192.813 17.7458 192.788 17.8938C192.763 18.0172 192.714 18.1653 192.64 18.338C192.517 18.4367 192.443 18.5972 192.418 18.8193C192.393 19.0167 192.381 19.2141 192.381 19.4115C192.208 19.8557 192.048 20.3986 191.9 21.0403C191.752 21.6572 191.641 22.2618 191.567 22.8541C191.517 23.4217 191.505 23.8659 191.53 24.1867C191.579 24.6062 191.69 24.9641 191.863 25.2602C192.06 25.5317 192.332 25.7538 192.677 25.9265C192.949 26.0499 193.195 26.1609 193.417 26.2597C193.64 26.3337 193.837 26.3707 194.01 26.3707C194.207 26.3954 194.454 26.3954 194.75 26.3707C195.071 26.3214 195.503 26.2473 196.046 26.1486H196.009C196.329 26.0993 196.663 26.0376 197.008 25.9635C197.378 25.8648 197.724 25.7784 198.045 25.7044C198.341 25.6551 198.625 25.6057 198.896 25.5563C199.167 25.4823 199.377 25.4206 199.525 25.3713C200.068 25.2232 200.5 25.0998 200.821 25.0011C201.166 24.9024 201.401 24.9024 201.524 25.0011C201.648 25.0998 201.783 25.2849 201.931 25.5563C202.079 25.8278 202.116 26.0746 202.042 26.2967C201.993 26.4201 201.746 26.6668 201.302 27.037C200.858 27.4319 200.352 27.8144 199.784 28.1845C199.217 28.5794 198.699 28.8508 198.23 28.9989C197.736 29.221 197.07 29.3691 196.231 29.4431C195.416 29.5418 194.627 29.5665 193.862 29.5172C193.097 29.4678 192.517 29.3814 192.122 29.258ZM208.29 11.3048C208.043 11.3295 207.735 11.3418 207.365 11.3418C207.019 11.3172 206.797 11.0704 206.698 10.6015C206.674 10.4287 206.698 10.2683 206.772 10.1203C206.847 9.9722 206.945 9.81179 207.069 9.63905C207.365 9.14549 207.698 8.61491 208.068 8.04732C208.463 7.45505 208.722 6.97383 208.845 6.60366C208.845 6.50495 208.858 6.41857 208.882 6.34454C208.463 6.41857 208.031 6.27051 207.587 5.90034C207.118 5.45613 206.995 4.86386 207.217 4.12352C207.439 3.38318 207.871 2.79091 208.512 2.34671C208.956 2.07525 209.376 1.92718 209.771 1.9025C210.166 1.87783 210.585 1.9642 211.029 2.16162C211.449 2.4084 211.794 2.79091 212.066 3.30915C212.337 3.80271 212.411 4.2099 212.288 4.53071C212.214 5.0983 212.078 5.62888 211.881 6.12244C211.708 6.616 211.548 7.09722 211.4 7.5661C211.252 8.10901 210.943 8.68895 210.474 9.3059C210.03 9.89817 209.598 10.4411 209.179 10.9346C209.203 11.0334 209.129 11.095 208.956 11.1197C208.784 11.1444 208.562 11.2061 208.29 11.3048ZM214.879 11.3048C214.632 11.3295 214.324 11.3418 213.954 11.3418C213.608 11.3172 213.399 11.0704 213.324 10.6015C213.3 10.4287 213.324 10.2683 213.399 10.1203C213.473 9.9722 213.571 9.81179 213.695 9.63905C213.991 9.14549 214.324 8.61491 214.694 8.04732C215.089 7.45505 215.348 6.97383 215.471 6.60366C215.471 6.50495 215.484 6.41857 215.508 6.34454C215.089 6.41857 214.657 6.27051 214.213 5.90034C213.744 5.45613 213.608 4.86386 213.806 4.12352C214.028 3.38318 214.46 2.79091 215.101 2.34671C215.545 2.07525 215.965 1.92718 216.36 1.9025C216.755 1.87783 217.174 1.9642 217.618 2.16162C218.038 2.4084 218.383 2.79091 218.655 3.30915C218.926 3.80271 219 4.2099 218.877 4.53071C218.803 5.0983 218.667 5.62888 218.47 6.12244C218.297 6.616 218.137 7.09722 217.989 7.5661C217.841 8.10901 217.532 8.68895 217.063 9.3059C216.619 9.89817 216.187 10.4411 215.768 10.9346C215.792 11.0334 215.718 11.095 215.545 11.1197C215.373 11.1444 215.151 11.2061 214.879 11.3048Z" fill="#64748B"/>
</svg>
